<svg xmlns="http://www.w3.org/2000/svg" xmlns:xlink="http://www.w3.org/1999/xlink"><symbol id="clock" viewBox="0 0 299.998 299.998"><path d="M149.997 0C67.157 0 .001 67.158.001 149.995s67.156 150.003 149.995 150.003 150-67.163 150-150.003S232.836 0 149.997 0zm10.358 168.337c-.008.394-.067.788-.122 1.183-.039.296-.057.599-.124.89-.067.303-.182.602-.28.905-.117.366-.226.731-.379 1.076-.029.06-.039.124-.065.184-.226.482-.488.934-.775 1.362-.018.026-.042.052-.06.078-.327.48-.7.916-1.092 1.325-.109.112-.22.213-.335.319-.345.329-.708.63-1.094.905-.119.086-.233.176-.358.259-.495.324-1.014.609-1.554.843-.117.052-.239.083-.358.13a10.425 10.425 0 01-1.909.542c-.612.112-1.232.189-1.86.189-.127 0-.257-.039-.384-.044-.602-.023-1.198-.07-1.771-.192-.179-.039-.355-.117-.534-.166a10.53 10.53 0 01-1.554-.529c-.057-.029-.117-.034-.174-.06l-57.515-27.129c-5.182-2.443-7.402-8.626-4.959-13.808 2.443-5.179 8.626-7.402 13.808-4.959l42.716 20.144V62.249c0-5.729 4.645-10.374 10.374-10.374s10.374 4.645 10.374 10.374V168.15h.002c0 .062-.018.124-.018.187z"/></symbol><symbol id="doctor" viewBox="0 0 500 500"><style>.st0{fill:#606060}</style><path class="st0" d="M99.5 260.5c10.6-9.1 23.9-11.8 36.7-15.6 10.4-3.1 21-5.5 31.6-7.6 7.5-1.5 7.2-3.7 3.9-10-17.2-32.6-32.8-66.1-32.9-103.9-.1-32.3 12.4-59.7 39.2-78.8 37-26.3 76.5-27.8 117.1-9.2 6 2.7 11.1 3.3 17.1 2.1 16.7-3.2 32.9-.6 46.7 8.7 27.7 18.7 47.5 59.7 36.6 95.1-1.4 4.5-1.8 8.9-1.5 13.5 1 21.3-4.8 41.2-13.5 60.3-2.3 4.9-3.7 10.2-8.6 14-4.3 3.4-3.4 6.4 2.8 7.4 19.7 3.4 38.9 8.8 57.5 16.1 11.5 4.6 14.4 8.6 12.7 20.7-7.4 52.2-15 104.4-22.4 156.5-2.2 15.2-4 30.5-6.2 45.7-1.7 11.6-5.2 14.5-17 14.5-85 0-170 0-254.9-.1-11.9 0-14.5-2-16.2-13.9-7.5-51.3-14.6-102.7-22.1-154-1.9-13.2-4.4-26.4-6.6-39.6v-21.9zm80.6-84.9c-.4 4.3.5 8.5 1.7 12.6 3.4 11.7 9.6 21.8 17.2 31.2 19.1 23.8 44.6 36 74.5 35.1 49.4-1.6 84.1-33.1 93.1-81.8 3.2-17.2 2.9-17.7-12.8-23.8-2.7-1-5.3-2-7.9-3.2-18.5-8.1-33.7-20.1-44.1-37.5-2.5-4.1-3.3-10.5-6.8-12.4-4.9-2.7-8.4 4-12.7 6.3-15.4 8.3-32.5 10-49.1 13.6-32.8 6.9-50.4 26.2-53.1 59.9zm136.8 289.9h61.6c12.9 0 12.8 0 14.7-12.9 7.7-55 15.2-110 23.5-164.9 1.4-9-1.7-12.7-8.9-15.2-11.1-3.8-22.3-6.9-33.9-8.7-4.4-.7-6.8.3-8 5-9.9 38.9-34.3 68.2-63 94.5-9.7 8.8-19.7 17.3-29.3 26.2-17.8 16.6-25 38.2-28.3 61.6-2 14.4-2.3 14.4 11.9 14.4h59.7zm-132.3-.1c7.7 0 15.4-.3 23.1.1 6.9.3 9.2-2.4 10-9.3 3.1-28.7 10.2-56.1 30.4-78.3 3.2-3.5 2.1-5.6-.9-8.4-7.3-6.8-14.3-13.9-21.2-21-21.9-22.9-40.6-47.8-47.3-79.7-1.1-5.1-3.3-6.6-8.3-5.2-11.8 3.3-23.6 6.6-35.6 9.2-6.8 1.5-8.6 4.5-7.5 11.3 3.3 20.5 5.8 41.2 8.8 61.7 5.5 37.5 11.1 74.9 16.4 112.4.8 5.4 3 7.4 8.3 7.2 7.9-.2 15.9 0 23.8 0zm154-202.2c-2.6-.9-3.9.5-5.3 1.3-38.2 21.2-76.9 22.2-116.2 3.3-3.1-1.5-7-5.5-9.9-2.9-3.3 3 .1 7.5 1.3 11.1 5.5 16.2 15.6 29.3 26.6 42.3 10.2 12 21.1 23 33.1 33.1 3.4 2.8 5.9 2.5 8.9-.3 4.9-4.7 9.9-9.4 14.9-14 18.2-16.8 33.3-35.8 43.4-58.7 1.9-4.9 4.2-9.8 3.2-15.2zM165.5 129.6c2.7-.3 3.3-2.1 4.3-3.4 15-21.7 36.1-33.2 61.8-37.4 8.4-1.4 16.8-3.1 25.1-5.1 10.7-2.5 19.5-7.8 25.2-17.5 2.2-3.8 2.4-6.1-2.5-8.6-12.9-6.8-26.6-7.9-40.7-7.3-34.5 1.5-60.8 21.4-70.4 53.6-2.5 8.2-4 16.8-2.8 25.7zm206-11.1c-1-15.6-6.5-29.3-16.5-40.7-7.7-8.8-17.8-14.2-29.8-14.9-8.2-.5-10.2 2.2-8.5 10.1 5.6 26.5 21.8 42.9 47.3 51.1 7 2.3 8.2 0 7.5-5.6z"/><path class="st0" d="M343.3 390h11.5v58.5h-11.5z"/><path transform="rotate(90 349 418.75)" class="st0" d="M343.3 389.5h11.5V448h-11.5z"/></symbol><symbol id="line" viewBox="0 0 195 45"><path d="M173.5 45h-152C9.6 45 0 35.4 0 23.5S9.6 2 21.5 2h152c11.9 0 21.5 9.6 21.5 21.5S185.4 45 173.5 45z" fill="#ef7317"/><path d="M173.5 43h-152C9.6 43 0 33.4 0 21.5S9.6 0 21.5 0h152C185.4 0 195 9.6 195 21.5S185.4 43 173.5 43z" fill="#ff9110"/><linearGradient id="a" gradientUnits="userSpaceOnUse" x1="-622.524" y1="550.152" x2="-622.524" y2="566.152" gradientTransform="matrix(-1 0 0 1 -525.024 -548.784)"><stop offset="0" stop-color="#fff"/><stop offset="1" stop-color="#fff" stop-opacity="0"/></linearGradient><path d="M21.5 0h152C185.4 0 195 9.6 195 21.5H0C0 9.6 9.6 0 21.5 0z" opacity=".2" fill="url(#a)"/></symbol><symbol id="line2" viewBox="0 0 458.9 64"><path d="M428.4 64H30.6C13.7 64 0 50.3 0 33.4 0 16.5 13.7 2.8 30.6 2.8h397.8c16.9 0 30.6 13.7 30.6 30.6-.1 16.9-13.7 30.6-30.6 30.6z" fill="#ef7317"/><path d="M428.4 61.1H30.6C13.7 61.1 0 47.5 0 30.6S13.7 0 30.6 0h397.8C445.3 0 459 13.7 459 30.6c-.1 16.9-13.7 30.5-30.6 30.5z" fill="#ff9110"/><linearGradient id="a" gradientUnits="userSpaceOnUse" x1="229.5" y1="-24.739" x2="229.5" y2="9.761" gradientTransform="translate(0 22)"><stop offset="0" stop-color="#fff"/><stop offset=".559" stop-color="#fff" stop-opacity=".441"/><stop offset="1" stop-color="#fff" stop-opacity="0"/></linearGradient><path d="M0 30.6C0 13.7 13.7 0 30.6 0h397.8C445.3 0 459 13.7 459 30.6H0z" opacity=".2" fill="url(#a)"/></symbol><symbol id="line3" viewBox="0 0 195 45"><path d="M173.5 45h-152A21.47 21.47 0 010 23.5 21.47 21.47 0 0121.5 2h152A21.47 21.47 0 01195 23.5 21.47 21.47 0 01173.5 45z" fill="#ef7317"/><path d="M173.5 43h-152A21.47 21.47 0 010 21.5 21.47 21.47 0 0121.5 0h152A21.47 21.47 0 01195 21.5 21.47 21.47 0 01173.5 43z" fill="#ff9110"/></symbol><symbol id="location" viewBox="0 0 487.724 487.724"><path d="M236.925.124c-96.9 3.4-177.4 79-186.7 175.5-1.9 19.3-.8 38 2.6 55.9 0 0 .3 2.1 1.3 6.1 3 13.4 7.5 26.4 13.1 38.6 19.5 46.2 64.6 123.5 165.8 207.6 6.2 5.2 15.3 5.2 21.6 0 101.2-84 146.3-161.3 165.9-207.7 5.7-12.2 10.1-25.1 13.1-38.6.9-3.9 1.3-6.1 1.3-6.1 2.3-12 3.5-24.3 3.5-36.9 0-109.8-90.9-198.3-201.5-194.4zm6.9 291.2c-52.2 0-94.5-42.3-94.5-94.5s42.3-94.5 94.5-94.5 94.5 42.3 94.5 94.5-42.3 94.5-94.5 94.5z"/></symbol><symbol id="phone"><path d="M242.607 0C108.629 0 .001 108.628.001 242.606c0 133.976 108.628 242.606 242.606 242.606s242.604-108.631 242.604-242.606C485.212 108.628 376.585 0 242.607 0zm128.112 353.989l-19.425 19.429c-3.468 3.463-13.623 5.624-13.949 5.624-61.452.536-120.621-23.602-164.095-67.08-43.593-43.618-67.759-102.998-67.11-164.657 0-.028 2.224-9.892 5.689-13.324l19.424-19.427c7.108-7.141 20.762-10.368 30.327-7.168l4.086 1.363c9.537 3.197 19.55 13.742 22.185 23.457l9.771 35.862c2.635 9.743-.919 23.604-8.025 30.712l-12.97 12.972c12.734 47.142 49.723 84.138 96.873 96.903l12.965-12.975c7.141-7.141 20.997-10.692 30.719-8.061l35.857 9.806c9.717 2.67 20.26 12.62 23.456 22.154l1.363 4.145c3.168 9.538-.034 23.189-7.141 30.265z"/></symbol><symbol id="right" viewBox="0 0 58.7 51.4"><style/><path fill="#eebf7c" d="M33 0l-.7.7 24.5 24.5H0v1h56.8L32.3 50.7l.7.7 25.7-25.7z"/></symbol><symbol id="tooth-braces" viewBox="0 0 144 158.9"><style/><path class="st0" d="M144 43.2h-9.1c.7-6.9 0-14-2.9-21.3-4.4-11.2-12.2-18.3-24-20.9C97.3-1.5 87.3.9 77.9 6.2c-4.3 2.4-7.9 2.6-12.2 0C60.2 2.7 54 1.1 47.4.3 29.4-1.7 14.5 8.5 10 26c-1.5 5.8-1.8 11.5-1.3 17.2H0v5h9.3c.2 1.4.5 2.7.8 4.1 1.8 8.2 6.1 15.2 10.5 22 4.2 6.3 4.6 12.9 3.2 19.8-2.1 10.1-2.4 20.1-1 30.2.8 6.2 1.9 12.2 4.3 18 2.3 5.7 6.1 10.1 10.9 13.7 8.4 6.3 19.5 1.3 22.3-9.9 2-8 1.3-16.2 1.4-24.4.1-6.3 4.5-11 10.2-11.2 5.5-.2 9.6 4.3 9.9 10.9.1 2.6 0 5.3 0 8-.1 6.2.2 12.4 2 18.4 2.7 9 11 12.8 19.7 9 3.9-1.7 6.8-4.5 9-8.1 5.3-8.6 8.1-17.9 8.5-28 .4-9.6 0-19.1-1.4-28.6-.7-5-1.8-10.5 1.6-15.2 2.4-3.2 4.3-6.6 6.1-10.1 3.1-6.2 5.6-12.4 6.9-18.8h9.8v-4.8zM22.2 30.9c1.4-11.8 12.9-19.7 25-17.4 3.8.7 7.5 1.5 10.8 3.6 9.5 5.9 18.8 5.8 28.2-.2 4.6-3 10-3.9 15.4-3.6 11 .7 19.1 9.5 20.1 20.7.3 3.1.2 6.2-.1 9.1H91.3v-9.9H52.8v9.9H22c-.4-3.9-.3-8 .2-12.2zm35.6 17.3h28.5v4.9H57.8v-4.9zm0-5v-4.9h28.5v4.9H57.8zm54.5 23.1c-7 10.1-7.8 20.8-5.4 32.2 2.5 12 1.4 23.8-1.7 35.5-.8 3-2.4 5.7-4.5 8.1-.9 1-1.6 2.6-3.3 2.2-1.7-.4-1.6-2.1-1.9-3.4-1-4.3-.7-8.7-.8-13.1-.1-4 .2-8.1-.6-12.2-1.8-11-12.4-17.4-21.1-18-10.9-.7-20.2 6.1-23.3 16.4-1.6 5.5-1.9 11.1-1.3 16.7.4 3.7-.3 7.3-.5 10.9-.1 1.4-.4 3-2 3.3-1.4.3-2.3-.9-3.1-1.9-4.8-6.3-6.5-13.7-7.2-21.3-1.1-11.4.8-22.7 2.1-34 .7-5.6-.5-10.7-3.1-15.5-1.6-3-3.4-5.9-5.2-8.7-3.3-4.9-5.4-10.1-6.5-15.4h30V58h38.5v-9.9h29.4c-1.7 6.6-4.6 12.6-8.5 18.2z"/></symbol><symbol id="tooth-bright" viewBox="0 0 158.9 158.9"><style/><path class="st0" d="M158.8 39.1l.1-3.3c-1.5 0-35.9-1.3-35.9-35.9h-6.5c0 3.4-.4 6.5-1 9.3-4.2-4.1-9.5-7-16-8.4-10.7-2.3-20.7.1-30 5.4-4.3 2.4-7.9 2.6-12.2 0C51.8 2.8 45.5 1.1 39 .4 21-1.7 6 8.5 1.5 26c-2.3 8.8-1.8 17.6.2 26.4 1.8 8.2 6.1 15.2 10.5 22 4.2 6.3 4.6 12.9 3.2 19.8-2.1 10.1-2.4 20.1-1 30.2.8 6.2 1.9 12.2 4.3 18 2.3 5.7 6.1 10.1 10.9 13.7 8.4 6.3 19.5 1.3 22.3-9.9 2-8 1.3-16.2 1.4-24.4.1-6.3 4.5-11 10.2-11.2 5.5-.2 9.6 4.3 9.9 10.9.1 2.6 0 5.3 0 8-.1 6.2.2 12.4 2 18.4 2.7 9 11 12.8 19.7 9 3.9-1.7 6.8-4.5 9-8.1 5.3-8.6 8.1-17.9 8.5-28 .4-9.6 0-19.1-1.4-28.6-.7-5-1.8-10.5 1.6-15.2 1.2-1.7 2.3-3.4 3.4-5.2.3 1.9.4 4 .4 6.2h6.5c0-34.5 34.5-35.8 35.9-35.9l-.2-3zm-54.9 27.2c-7 10.1-7.8 20.8-5.4 32.2 2.5 12 1.4 23.8-1.7 35.5-.8 3-2.4 5.7-4.5 8.1-.9 1-1.6 2.6-3.3 2.2-1.7-.4-1.6-2.1-1.9-3.4-1-4.3-.7-8.7-.8-13.1-.1-4 .2-8.1-.6-12.2-1.9-11.1-12.5-17.5-21.2-18.1-10.9-.7-20.2 6.1-23.3 16.4-1.6 5.5-1.9 11.1-1.3 16.7.4 3.7-.3 7.3-.5 10.9-.1 1.4-.4 3-2 3.3-1.4.3-2.3-.9-3.1-1.9-4.8-6.3-6.5-13.7-7.2-21.3-1.1-11.4.8-22.7 2.1-34 .7-5.6-.5-10.7-3.1-15.5-1.6-3-3.4-5.9-5.2-8.7-6.7-10-8.5-21-7.1-32.7 1.4-11.8 12.9-19.7 25-17.4 3.8.7 7.5 1.5 10.8 3.6 9.5 5.9 18.8 5.8 28.2-.2 4.6-3 10-3.9 15.4-3.6 6.9.4 12.6 4 16.2 9.4C99 35.2 81.6 35.8 80.6 35.9l.1 3v.2l-.1 3.3c1 0 18.9.7 29 13.6-1.5 3.5-3.4 7-5.7 10.3zm16-4.9c-.1-.1-.3-.2-.4-.3-5.2-12.8-15.9-19-24.8-22 9-3 20-9.4 25.1-22.7 5 13.3 16 19.7 25.1 22.7-9 3-19.9 9.3-25 22.3z"/></symbol><symbol id="tooth-cleaning" viewBox="0 0 500 500"><style>.st1{fill:#515151}.st2{fill:#fff}</style><path class="st1" d="M258 425.2c0-6.5.2-13 0-19.4-.7-16.1-10.7-26.9-24-26.5-13.9.5-24.5 11.9-24.7 27.2-.2 19.7 1.5 39.6-3.3 59-6.7 27.1-33.6 39.2-54 23.9-11.6-8.7-20.8-19.5-26.4-33.2-5.8-14-8.5-28.7-10.5-43.6-3.2-24.5-2.7-48.8 2.5-73.2 3.5-16.7 2.4-32.6-7.7-47.9C99.2 275 88.8 258 84.5 238.2c-4.7-21.3-5.9-42.4-.4-63.8 10.9-42.3 47.1-67 90.6-62.1 15.9 1.8 31 5.8 44.4 14.1 10.3 6.4 19.2 5.9 29.5.1 22.6-12.9 46.8-18.5 72.8-12.7 28.6 6.3 47.6 23.5 58.2 50.7 15 38.4 6.1 74.3-11.5 109.3-4.3 8.5-9 16.7-14.7 24.5-8.1 11.2-5.6 24.5-3.8 36.7 3.3 23.1 4.3 46.1 3.4 69.3-.9 24.3-7.8 47-20.6 67.7-5.3 8.5-12.3 15.4-21.8 19.5-21 9.2-41.2.2-47.7-21.7-4.5-14.5-5.1-29.5-4.9-44.6zm31.4-4.2c.3 10.5-.5 21.2 1.9 31.6.8 3.3.6 7.4 4.7 8.3 4.1.9 5.8-3 7.9-5.4 5.1-5.6 8.9-12.3 10.8-19.5 7.4-28.3 10.1-57 4.1-86-5.7-27.7-3.9-53.5 13.1-78 15.9-23 25.3-48.8 22.6-78-2.5-27.3-22-48.5-48.7-50.2-13.1-.8-26.1 1.4-37.3 8.6-22.8 14.6-45.3 14.8-68.2.5-7.9-5-17-7-26.1-8.7-29.4-5.6-57.2 13.7-60.6 42.2-3.4 28.3 1.1 55 17.2 79.2 4.5 6.8 8.8 13.8 12.7 21 6.4 11.6 9.1 23.9 7.5 37.4-3.1 27.4-7.7 54.7-5 82.4 1.8 18.5 5.8 36.4 17.5 51.6 1.8 2.4 4 5.4 7.4 4.6 4-.9 4.7-4.8 4.9-8.1.5-8.8 2.2-17.5 1.2-26.5-1.5-13.6-.8-27.2 3.1-40.5 7.5-25.1 30.1-41.6 56.5-39.8 21.2 1.4 46.8 16.9 51.4 43.8 1.8 9.8 1.2 19.7 1.4 29.5z"/><path class="st2" d="M176.6 137c4.7-6.8 9.3-13.6 14-20.5 1.9-2.7 4-5.3 7.6-3.4 3.9 2 2.7 5.2.8 8-4.6 6.9-9.2 13.7-14 20.4-2.2 3.1-2.5 5.4 1.2 7.7 3.5 2.2 5.8 1.4 7.6-2.1.9-1.6 1.8-3.2 2.9-4.7 1.7-2.3 4-3.5 6.7-1.8 2.6 1.7 2.7 4.2 1.2 6.8-1.3 2.2-2.7 4.4-4.2 6.5-2.9 3.9.6 5 2.7 6.8 2.5 2.1 4.2 1.9 6.1-1.1 4.4-7 9.1-13.8 13.6-20.7.5-.8 1-1.5 1.7-2.2 1.8-1.8 3.9-3.1 6.4-1.5 2.7 1.8 2.5 4.5.9 6.8-4.6 7.1-9.3 14.2-14.2 21-2.6 3.6-2.6 5.9 1.3 8.5 3 2 4.9 1.8 6.6-1.3 1.1-1.9 2.5-3.7 3.8-5.5 1.5-2.2 3.6-3.5 6.1-2 2.7 1.6 2.7 4.3 1.3 6.8-1.2 2.2-2.7 4.4-4.2 6.5-1.7 2.3-1.4 4.2 1.2 5.4 2.4 1.1 5 4.1 7.6.3 6.4-9.4 12.7-18.9 19-28.3 2.4-3.7 4.7-7.5 7.3-11 2.6-3.6 1.6-5.7-1.8-8-19.9-13.3-39.6-26.8-59.4-40.3-7-4.8-14.1-9.4-21-14.3-3-2.2-4.7-1.6-6.6 1.3-8.8 13.2-17.6 26.3-26.7 39.3-2.1 3-1.9 4.7 1.3 6.6 2.9 1.7 5.3 3.7 7.6-.6 1.1-2.1 2.5-4.1 3.9-6 1.8-2.4 4.1-3.2 6.7-1.4 2.4 1.7 2.3 4 .9 6.3-1.4 2.2-2.9 4.3-4.3 6.4-.9 1.3-2.4 2.8-.8 4.4 1.8 1.8 3.8 3.5 6.8 3.8.7-1 1.7-1.9 2.4-2.9zM471.7 238.5c-93.3-63.3-186.6-126.8-279.9-190.2l-1.8-1.2c-6.1-3.7-12.1-3-15.2 1.7-3.1 4.7-1.2 11.2 4.6 15.2 23.3 15.8 46.5 31.7 69.8 47.5 70.5 47.9 140.9 95.8 211.4 143.6 6.7 4.6 10.6 4.6 14.9.5 2.3-2.1 3.6-4.7 2.3-8.5-.5-3.4-2.6-6.2-6.1-8.6z"/><path d="M171.8 38.9c6-4.5 12.6-4.6 19.3-1.5 5.1 2.3 9.3 5.8 13.9 8.9 18.2 12.4 36.4 24.7 54.6 37.1 12.9 8.8 25.8 17.6 38.7 26.3 18.7 12.7 37.4 25.3 56.1 38 12.4 8.5 24.7 17.1 37.2 25.6 13.8 9.4 27.8 18.6 41.6 27.9 14.4 9.8 28.7 19.8 43.2 29.4 10.5 6.9 14.4 19 8.5 28.4-6.5 10.3-18 12.1-29.3 4.4-56.9-38.6-113.8-77.3-170.7-116-6.4-4.3-6.3-4.4-10.7 2.2-9.6 14.2-19.2 28.3-28.8 42.5-2.2 3.3-4.6 5.3-8.6 2.7-4-2.6-8-5.3-11.9-7.9-17.8-12.1-35.5-24.2-53.3-36.3-9.4-6.4-18.9-12.7-28.2-19.2-5.3-3.7-5.5-6.8-1.6-12 2.9-4 5.6-8.2 8.4-12.3 6.8-10 13.7-20 20.5-30 2.1-3.1 2.5-5.7-.7-8.6-3.1-2.7-4.9-6.4-5.3-9.1-2-9.5.9-15.8 7.1-20.5zm299.9 199.8C378.4 175.4 285.1 112 191.8 48.6l-1.8-1.2c-6.1-3.7-12.1-3-15.2 1.7-3.1 4.7-1.2 11.2 4.6 15.2 23.3 15.8 46.5 31.7 69.8 47.5 70.5 47.9 140.9 95.8 211.4 143.6 6.7 4.6 10.6 4.6 14.9.5 2.3-2.1 3.6-4.7 2.3-8.5-.5-3.4-2.6-6.3-6.1-8.7zM176.6 137c4.7-6.8 9.3-13.6 14-20.5 1.9-2.7 4-5.3 7.6-3.4 3.9 2 2.7 5.2.8 8-4.6 6.9-9.2 13.7-14 20.4-2.2 3.1-2.5 5.4 1.2 7.7 3.5 2.2 5.8 1.4 7.6-2.1.9-1.6 1.8-3.2 2.9-4.7 1.7-2.3 4-3.5 6.7-1.8 2.6 1.7 2.7 4.2 1.2 6.8-1.3 2.2-2.7 4.4-4.2 6.5-2.9 3.9.6 5 2.7 6.8 2.5 2.1 4.2 1.9 6.1-1.1 4.4-7 9.1-13.8 13.6-20.7.5-.8 1-1.5 1.7-2.2 1.8-1.8 3.9-3.1 6.4-1.5 2.7 1.8 2.5 4.5.9 6.8-4.6 7.1-9.3 14.2-14.2 21-2.6 3.6-2.6 5.9 1.3 8.5 3 2 4.9 1.8 6.6-1.3 1.1-1.9 2.5-3.7 3.8-5.5 1.5-2.2 3.6-3.5 6.1-2 2.7 1.6 2.7 4.3 1.3 6.8-1.2 2.2-2.7 4.4-4.2 6.5-1.7 2.3-1.4 4.2 1.2 5.4 2.4 1.1 5 4.1 7.6.3 6.4-9.4 12.7-18.9 19-28.3 2.4-3.7 4.7-7.5 7.3-11 2.6-3.6 1.6-5.7-1.8-8-19.9-13.3-39.6-26.8-59.4-40.3-7-4.8-14.1-9.4-21-14.3-3-2.2-4.7-1.6-6.6 1.3-8.8 13.2-17.6 26.3-26.7 39.3-2.1 3-1.9 4.7 1.3 6.6 2.9 1.7 5.3 3.7 7.6-.6 1.1-2.1 2.5-4.1 3.9-6 1.8-2.4 4.1-3.2 6.7-1.4 2.4 1.7 2.3 4 .9 6.3-1.4 2.2-2.9 4.3-4.3 6.4-.9 1.3-2.4 2.8-.8 4.4 1.8 1.8 3.8 3.5 6.8 3.8.7-1 1.7-1.9 2.4-2.9z" fill="#ff961a" stroke="#fff" stroke-width="4" stroke-miterlimit="10"/><path class="st1" d="M233.9 240.5c-.5 3.2-2.7 3.9-5.4 4.2-7.1.7-14.2 1.7-21.1 3.8-10.8 3.4-16.9 10.9-19.1 21.7-1.3 6.7-2.3 13.5-2.2 20.3 0 2.9 0 6.2-3.8 6.5-4.2.3-4.3-3.1-4.8-6.2-1-6.1-.6-12.3-1.9-18.4-3.4-15.6-10.9-23.1-26.6-25.7-4.9-.8-9.8-2.1-14.8-2.1-2.6 0-4.6-1.3-4.8-4.1-.2-3 2-4 4.5-4.4 3.8-.6 7.6-1 11.4-1.4 22.8-2.4 29.9-15.5 31.4-34 .3-4.1.7-8.3 1-12.4.2-2.6 1.2-4.7 4.1-4.7 2.9 0 4.2 2.1 4.2 4.7.1 6.5 1.1 12.9 1.9 19.4 1.8 14.2 10.1 23.2 24.2 26 5.1 1 10.1 1.9 15.3 2 3.2 0 5.9 1.1 6.5 4.8zm-74.7.1c10.8 4.2 18.1 10.7 22.4 21.7 4.6-10.6 11.5-17.6 22.6-21.7-11-4.6-18-11.4-22.7-22-4.2 11.1-11.8 17.4-22.3 22z"/><path class="st2" d="M159.1 240.5c10.8 4.2 18.1 10.7 22.4 21.7 4.6-10.6 11.5-17.6 22.6-21.7-11-4.6-18-11.4-22.7-22-4.2 11.2-11.8 17.4-22.3 22z"/></symbol><symbol id="tooth-dialog" viewBox="0 0 500 500"><style>.st1{fill:#515151}</style><path class="st1" d="M240 425.2c0-6.5.2-13 0-19.4-.7-16.1-10.7-26.9-24-26.5-13.9.5-24.5 11.9-24.7 27.2-.2 19.7 1.5 39.6-3.3 59-6.7 27.1-33.6 39.2-54 23.9-11.6-8.7-20.8-19.5-26.4-33.2-5.8-14-8.5-28.7-10.5-43.6-3.2-24.5-2.7-48.8 2.5-73.2 3.5-16.7 2.4-32.6-7.7-47.9C81.2 275 70.8 258 66.5 238.2c-4.7-21.3-5.9-42.4-.4-63.8 10.9-42.3 47.1-67 90.6-62.1 15.9 1.8 31 5.8 44.4 14.1 10.3 6.4 19.2 5.9 29.5.1 22.6-12.9 46.8-18.5 72.8-12.7 28.6 6.3 47.6 23.5 58.2 50.7 15 38.4 6.1 74.3-11.5 109.3-4.3 8.5-9 16.7-14.7 24.5-8.1 11.2-5.6 24.5-3.8 36.7 3.3 23.1 4.3 46.1 3.4 69.3-.9 24.3-7.8 47-20.6 67.7-5.3 8.5-12.3 15.4-21.8 19.5-21 9.2-41.2.2-47.7-21.7-4.5-14.5-5.1-29.5-4.9-44.6zm31.4-4.2c.3 10.5-.5 21.2 1.9 31.6.8 3.3.6 7.4 4.7 8.3 4.1.9 5.8-3 7.9-5.4 5.1-5.6 8.9-12.3 10.8-19.5 7.4-28.3 10.1-57 4.1-86-5.7-27.7-3.9-53.5 13.1-78 15.9-23 25.3-48.8 22.6-78-2.5-27.3-22-48.5-48.7-50.2-13.1-.8-26.1 1.4-37.3 8.6-22.8 14.6-45.3 14.8-68.2.5-7.9-5-17-7-26.1-8.7-29.4-5.6-57.2 13.7-60.6 42.2-3.4 28.3 1.1 55 17.2 79.2 4.5 6.8 8.8 13.8 12.7 21 6.4 11.6 9.1 23.9 7.5 37.4-3.1 27.4-7.7 54.7-5 82.4 1.8 18.5 5.8 36.4 17.5 51.6 1.8 2.4 4 5.4 7.4 4.6 4-.9 4.7-4.8 4.9-8.1.5-8.8 2.2-17.5 1.2-26.5-1.5-13.6-.8-27.2 3.1-40.5 7.5-25.1 30.1-41.6 56.5-39.8 21.2 1.4 46.8 16.9 51.4 43.8 1.8 9.8 1.2 19.7 1.4 29.5z"/><path class="st1" d="M484 106.8c-.4 3-.7 6.1-1.3 9.1-2.9 14.5-9.4 27.4-18.8 38.7-13.2 15.9-29.9 26.8-49.1 34.1-9.8 3.8-20 6.3-30.4 7.8-9.4 1.3-18.8 1.6-28.3 1.2-14.7-.7-29.1-3.5-42.9-8.5-.8-.3-1.5 0-2.2.2-8.9 3.3-17.8 6.6-26.7 9.8-9.7 3.5-19.5 7.1-29.3 10.3-3.8 1.3-6.4-.3-7.7-3.7-.6-1.4-.5-2.6.2-4 5.2-10.5 10.7-20.8 16.4-31.1l4.8-8.4c.4-.7.3-1.1-.2-1.7-6.8-7.4-12.6-15.5-17.1-24.5-4.4-9.1-7.2-18.6-8-28.7-1.3-17.1 2.6-33 11.1-47.9 5.1-9 12.2-16.4 19.6-23.5 9.2-8.8 20.1-15.2 31.7-20.4C317.4 10.4 329.6 7 342.1 5c3.2-.5 6.3-.9 9.5-.8.4 0 .9-.1 1.3-.2h17c.4.1.9.2 1.3.2 10.6 0 20.9 1.5 31.1 4.5 12.8 3.6 24.9 8.6 36.1 15.8 9.7 6.3 18.2 13.9 25.7 22.7 9.5 11.2 15.9 23.9 18.7 38.3.6 3.2 1 6.5 1.4 9.7-.2 3.9-.2 7.8-.2 11.6zm-216.4 84.4c.1.1.2.1.2.2.5-.2 1.1-.3 1.6-.5 13-4.5 25.9-9.3 38.8-14 2.9-1.1 5.5-1.1 8.4 0 12.8 4.7 26 7.7 39.6 8 8.5.2 17 .3 25.5-.9 13.2-1.9 25.9-5.4 37.9-11.2 7.1-3.5 14-7.4 20.1-12.4 4.6-3.8 8.9-8.1 12.9-12.6 12.8-14.4 19.2-31.2 18.4-50.5-.4-9.1-2.7-17.6-6.7-25.7-6-12.5-14.9-22.7-25.9-31-20.5-15.5-43.9-22.9-69.5-23.7-7.8-.2-15.6-.2-23.3.8-8.5 1.1-16.8 3.1-24.9 5.8-17.7 6.1-33.5 15.4-46 29.5-13 14.7-19.8 31.8-19 51.6.3 7 1.7 13.7 4.2 20.2 3.6 9.5 9.2 17.8 16 25.2 2 2.1 4 4.2 5.8 6.5 1.1 1.5 1.5 3.2.8 5-.5 1.2-.9 2.4-1.5 3.5-3.2 6.5-6.8 12.8-10.2 19.2-.9 2.3-2 4.7-3.2 7z"/><path d="M267.6 191.2c.1.1.2.1.2.2.5-.2 1.1-.3 1.6-.5 13-4.5 25.9-9.3 38.8-14 2.9-1.1 5.5-1.1 8.4 0 12.8 4.7 26 7.7 39.6 8 8.5.2 17 .3 25.5-.9 13.2-1.9 25.9-5.4 37.9-11.2 7.1-3.5 14-7.4 20.1-12.4 4.6-3.8 8.9-8.1 12.9-12.6 12.8-14.4 19.2-31.2 18.4-50.5-.4-9.1-2.7-17.6-6.7-25.7-6-12.5-14.9-22.7-25.9-31-20.5-15.5-43.9-22.9-69.5-23.7-7.8-.2-15.6-.2-23.3.8-8.5 1.1-16.8 3.1-24.9 5.8-17.7 6.1-33.5 15.4-46 29.5-13 14.7-19.8 31.8-19 51.6.3 7 1.7 13.7 4.2 20.2 3.6 9.5 9.2 17.8 16 25.2 2 2.1 4 4.2 5.8 6.5 1.1 1.5 1.5 3.2.8 5-.5 1.2-.9 2.4-1.5 3.5-3.2 6.5-6.8 12.8-10.2 19.2-.9 2.3-2 4.7-3.2 7z" fill="#fff"/><path class="st1" d="M296.6 68.9h134.9v13.3H296.6zM296.6 92.1h134.9v13.3H296.6zM296.6 115.2h88v13.3h-88z"/></symbol><symbol id="tooth-implement" viewBox="0 0 500 500"><style>.st0{fill:#e8e8e8}</style><path class="st0" d="M274.3 348.6c0-6.5.2-13 0-19.4-.7-16.1-10.7-26.9-24-26.5-13.9.5-24.5 11.9-24.7 27.2-.2 19.7 1.5 39.6-3.3 59-6.7 27.1-33.6 39.2-54 23.9-11.6-8.7-20.8-19.5-26.4-33.2-5.8-14-8.5-28.7-10.5-43.6-3.2-24.5-2.7-48.8 2.5-73.2 3.5-16.7 2.4-32.6-7.7-47.9-10.8-16.4-21.2-33.4-25.5-53.2-4.7-21.3-5.9-42.4-.4-63.8 10.9-42.3 47.1-67 90.6-62.1 15.9 1.8 31 5.8 44.4 14.1 10.3 6.4 19.2 5.9 29.5.1 22.6-12.9 46.8-18.5 72.8-12.7 28.6 6.3 47.6 23.5 58.2 50.7 15 38.4 6.1 74.3-11.5 109.3-4.3 8.5-9 16.7-14.7 24.5-8.1 11.2-5.6 24.5-3.8 36.7 3.3 23.1 4.3 46.1 3.4 69.3-.9 24.3-7.8 47-20.6 67.7-5.3 8.5-12.3 15.4-21.8 19.5-21 9.2-41.2.2-47.7-21.7-4.4-14.7-5.1-29.7-4.8-44.7zm31.3-4.3c.3 10.5-.5 21.2 1.9 31.6.8 3.3.6 7.4 4.7 8.3s5.8-3 7.9-5.4c5.1-5.6 8.9-12.3 10.8-19.5 7.4-28.3 10.1-57 4.1-86-5.7-27.7-3.9-53.5 13.1-78 15.9-23 25.3-48.8 22.6-78-2.5-27.3-22-48.5-48.7-50.2-13.1-.8-26.1 1.4-37.3 8.6-22.8 14.6-45.3 14.8-68.2.5-7.9-5-17-7-26.1-8.7-29.4-5.6-57.2 13.7-60.6 42.2-3.4 28.3 1.1 55 17.2 79.2 4.5 6.8 8.8 13.8 12.7 21 6.4 11.6 9.1 23.9 7.5 37.4-3.1 27.4-7.7 54.7-5 82.4 1.8 18.5 5.8 36.4 17.5 51.6 1.8 2.4 4 5.4 7.4 4.6 4-.9 4.7-4.8 4.9-8.1.5-8.8 2.2-17.5 1.2-26.5-1.5-13.6-.8-27.2 3.1-40.5 7.5-25.1 30.1-41.6 56.5-39.8 21.2 1.4 46.8 16.9 51.4 43.8 1.8 9.9 1.2 19.7 1.4 29.5z"/><path class="st0" d="M487.2 474.9h-467V237.8h5.3c3.8-.4 49.1-5.2 71.5-15.6 11.1-5.1 18-2.2 21.8 1.2 12.1 10.7 8.4 39.6.9 63-10.7 33.5-4.6 112.2 32.5 136.1 19.4 12.5 39 8 54.7 4.5 12-2.7 21.3-12.2 23.7-24.1 6.5-30.5 12.5-37.3 16.4-39.8 2.6-1.6 5.5-1.9 8.3-.8 8.9 3.6 15.3 24 19.2 40.4 2.2 9.2 7.6 21 20.9 24.3 10.9 2.7 27.2 4.7 43.1-.9 57.3-20.2 42.1-120.4 38.4-140.3-6.8-37.5-5.1-59.1 5.4-66.2 6.1-4.1 14.1-3.1 23.8 3 30.5 19.3 74.5 15.3 74.9 15.3l6-.6v237.6zm-456-11h445V249.1c-13.9.5-48.9-.3-75.8-17.3-5.4-3.4-9.7-4.6-11.8-3.2-1.6 1.1-9.2 8.8-.7 55.1 2.3 12.4 7.2 44.7 3.5 76.5-4.7 40.7-21.2 66.3-49.1 76.2-18.5 6.6-37.1 4.3-49.4 1.3-14.6-3.7-24.9-15.2-28.9-32.5-4.2-18.1-9.1-28.9-11.8-32-1.8 2.2-5.8 9.4-10.7 31.9-3.3 16.1-15.9 28.9-32.1 32.6-15.9 3.6-39.9 9-63.1-5.9-19-12.2-32.8-37.4-39-71.1-5.1-27.6-4.3-58 2-77.6 8.7-27 7.6-46.7 2.3-51.4-2-1.7-5.3-1.5-9.9.6-20.6 9.6-57.2 14.5-70.4 16v215.6z"/></symbol><symbol id="tooth-pulling" viewBox="0 0 500 500"><style>.st0{fill:#e8e8e8}</style><path class="st0" d="M291.4 331.8c1.3-6.3 2.8-12.7 3.9-19 2.5-15.9-5.1-28.5-18.2-30.8-13.7-2.3-26.4 6.7-29.6 21.7-4.2 19.3-6.5 39.1-15.1 57.2-12 25.3-40.8 31.7-57.7 12.5-9.6-10.8-16.4-23.3-19.2-37.9-2.9-14.9-2.6-29.8-1.5-44.8 1.8-24.7 7.2-48.4 17.1-71.2 6.8-15.6 8.9-31.4 2.1-48.5-7.2-18.3-14-37-14.3-57.2-.3-21.8 2.7-42.8 12.4-62.5C190.4 12 230.8-4.9 272.5 8.6c15.2 4.9 29.2 11.9 40.7 22.8 8.8 8.3 17.6 9.7 28.9 6 24.7-8.1 49.5-8.7 73.9 2.2 26.7 11.9 41.9 32.6 46.8 61.3 7 40.7-9 74-33.2 104.7-5.9 7.5-12.2 14.6-19.3 21-10.2 9.3-10.4 22.9-11.1 35.2-1.4 23.3-5.1 46-10.6 68.6-5.8 23.6-17 44.5-33.8 62.1-6.9 7.2-15.2 12.6-25.2 14.7-22.4 4.8-40.4-8.1-42.4-30.9-1.4-15 .9-29.8 4.2-44.5zM323 334c-1.8 10.4-4.8 20.6-4.5 31.3.1 3.4-.9 7.3 2.9 9.1 3.8 1.7 6.2-1.8 8.9-3.7 6.1-4.5 11.2-10.2 14.5-17 13-26.3 21.3-53.8 21.3-83.4 0-28.3 7-53.2 28.5-73.8 20.2-19.4 34.6-42.7 37.8-71.8 3-27.2-11.8-52-37.7-58.9-12.7-3.4-25.8-3.9-38.3.9-25.3 9.8-47.4 5.4-66.9-13.2-6.8-6.4-15.3-10.3-23.8-13.8-27.6-11.4-58.7 1.9-67.7 29.2-9 27-10 54.1.9 81 3.1 7.6 5.8 15.3 8.2 23.1 3.9 12.7 4.1 25.2-.1 38.1-8.6 26.2-18.6 52-21.4 79.7-1.9 18.5-1.6 36.8 6.8 54 1.3 2.7 2.8 6.1 6.3 6 4.1-.1 5.6-3.8 6.4-7 2.3-8.5 5.6-16.7 6.5-25.7 1.2-13.6 4.7-26.8 11.2-39.1 12.4-23.1 37.8-34.7 63.3-27.7 20.5 5.6 42.5 26 41.5 53.2-.3 10.3-2.9 19.8-4.6 29.5z"/><path class="st0" d="M487.2 489.8h-467v-237h5.3c3.8-.4 49.1-5.2 71.5-15.6 11.1-5.1 18-2.2 21.8 1.2 12.1 10.7 8.4 39.6.9 63-10.7 33.5-4.6 112.2 32.5 136.1 19.4 12.5 39 8 54.7 4.5 12-2.7 21.3-12.2 23.7-24.1 4.1-19.1 14.7-25.6 23.3-25.4 12.6.5 16.7 8.5 20.6 25.2 2.2 9.2 7.6 21 20.9 24.3 10.9 2.7 27.2 4.7 43.1-.9 30.9-10.9 48-41.9 56.9-65.9 11-29.7 13.1-58.7 11-69.7-3.1-16.7-2-47.2 14-58 5.7-3.8 16-7.3 29.7 2.5 20 14.4 37.1 8.3 37.1 8.3v231.5zm-456-11h445V269.9c-7.7 1.5-18.2-2-31.9-10.7-7.4-4.7-13.4-5.6-17.7-2.7-9.4 6.3-12.4 29.8-9.3 46.9 2.6 14.3-.6 45.6-11.5 75.5-9.7 26.3-28.6 60.2-63.5 72.5-18.5 6.6-37.1 4.3-49.4 1.3-14.6-3.7-24.9-15.2-28.9-32.5-3.9-16.5-6.1-16.6-10.2-16.8h-.1c-4.2 0-9.6 5.1-12.1 16.7-3.3 16.1-15.9 28.9-32.1 32.6-15.9 3.6-39.9 9-63.1-5.9-19-12.2-32.8-37.4-39-71.1-5.1-27.6-4.3-58 2-77.6 8.7-27 7.6-46.7 2.3-51.4-2-1.7-5.3-1.5-9.9.6-20.6 9.6-57.2 14.5-70.4 16v215.5z"/></symbol><symbol id="tooth-screw" viewBox="0 0 500 500"><path d="M403.9 100.8c-10.6-27.1-29.6-44.3-58.2-50.7-26-5.8-50.2-.1-72.8 12.7-10.3 5.9-19.2 6.3-29.5-.1-13.4-8.3-28.5-12.3-44.4-14.1-43.5-4.9-79.7 19.7-90.6 62.1-5.5 21.3-4.2 42.5.4 63.8 4.3 19.8 14.7 36.8 25.5 53.2 4.5 6.9 7.2 16.4 8.5 23.5v16.6h35.5v2.3c-.1 3.5-.1 7 0 10.5.4 10.7 5.1 19.4 13.6 25.8 2.9 2.2 4.5 4.4 4.7 7.9 0 .5.1 1 .2 1.4.6 2.1.1 3.1-2.2 3.8-6.9 1.9-10.8 7.8-10.5 15.3.3 6.5 5.1 11.8 11.9 13.2 1.8.4 3.7.2 5.5.4 1.5.1 2.5 1.9 2.4 4-.1 1.8-1.5 1-2.4 1.1-1.2.1-2.4 0-3.6 0-7.5.4-13.7 6.8-13.8 14.2-.1 8.5 6.1 14.9 14.6 15.1 3.2.1 6.4 0 9.6.1 2.3 0 1.9 2 2.2 3.3.3 1.7-1 1.7-2.2 1.7h-4.6c-7.1.3-13.4 6.3-13.9 13.2-.6 8.2 4.3 14.6 12 15.9 4.1.7 8.3.3 12.4.3 2.1 0 2.6 1 2.9 2.7.3 1.6.8 3-1.4 3.8-2.6.9-4.7 2.7-6.2 5.1-3.1 4.8-3.6 10-.9 15 2.7 5.2 7.3 8 13.3 7.9 2.4 0 3.9.7 5.3 2.7 5 7.1 11.9 11.8 20.4 13.6 7.4 1.6 14.8 1.3 22.2.5 9.7-1 17.6-5.6 23.4-13.5 1.6-2.2 3.4-3.3 6.1-3.8 6.1-1.1 10-5 11.3-11 1.4-6-.3-11.3-5.4-14.8-2.5-1.8-2.6-3.5-2.2-6 .3-1.8 1.1-2.2 2.7-2.2 2.7.1 5.4.2 8.1 0 6.4-.5 11.2-3.5 13.3-9.6 2.1-5.8 1-11.2-3.5-15.6-3.4-3.3-7.5-4.2-12.1-4.1-1.2 0-2.9.4-2.6-1.7.2-1.7.1-3.6 2.8-3.5 2.5.2 5.1.1 7.7 0 10.2-.3 16.9-9.8 13.7-19.5-2.1-6.4-7.2-9.7-15.3-9.9-1.3 0-2.9.2-2.7-2 .2-1.8.4-3.4 2.9-3.1.6.1 1.3 0 1.9 0 6.7-.4 12.5-5.3 13.8-11.7 1.3-6.4-2-13.2-7.5-16-1.7-.9-4.5-.4-5.1-2.5-.5-1.8.5-3.9.7-5.9s1.1-3.5 2.8-4.7c8.3-5.8 13.3-13.7 14.7-23.7.6-4.2.2-8.5.3-12.7 0-.8.1-2 .2-3.4h31.8v-16.6h.4c.3-5.8 1.8-11.4 5.6-16.6 5.6-7.8 10.4-16 14.7-24.5 17.7-34.9 26.6-70.7 11.6-109.2zm-82 233.1c0 1.6-1.3 2.3-2.8 2.3h-7.7c-3.7.1-5.9 1.7-6.6 5.3-1.1 5.7-2.2 11.5-3.1 17.2-.6 3.7 2.1 6.7 5.9 6.8 3.5.1 7 .1 10.5.1 1.8 0 3.4.4 3.5 2.4.1 2.2-1.6 2.6-3.5 2.6H241.8c-3.9.2-6.2 2.5-6.1 6.2 0 3.5 2.4 5.9 6.1 6 6.6.1 13.3 0 19.9 0h32.4c3.1 0 3.1 0 2.6 3.1-.3 2-.7 4.1-1.1 6.1-.9 4.8 1.6 7.9 6.6 8 3.1.1 6.2 0 9.4.1h1.9c1.6.1 2.6.9 2.6 2.5s-1.1 2.4-2.7 2.5h-12.9c-.9 0-1.8 0-2.6.1-2.9.5-4.8 2.2-5.3 5.1-1.1 5.6-2.1 11.1-2.9 16.8-.7 4.7 1.5 7.2 6.1 7.5 1.7.1 3.1.6 3.1 2.5 0 2-1.6 2.6-3.3 2.6h-29.5c-3.9.1-6.6 2.7-6.6 6.1 0 3.3 2.7 5.9 6.5 6 3.5.1 7 .1 10.5.1h2.4c-3.1 3-6.8 4.6-10.8 4.9-5.6.4-11.3.6-17-.3-7.4-1.2-12.7-5.5-16-12.1-1.7-3.4-4-5-7.8-4.8-1.8.1-3.7 0-5.5 0-1.5 0-2.5-.8-2.5-2.3 0-1.6.9-2.5 2.5-2.7 1-.1 2.1 0 3.1-.1 4-.3 6.3-2.9 5.9-6.9-.2-2.4-.8-4.7-1.2-7.1-.6-3.2-.7-3.2 2.5-3.2h43.2c3.4 0 5.6-1.3 6.5-3.9 1.6-4.3-.9-8.1-5.7-8.3-3.4-.1-6.9-.1-10.3-.1h-59.2c-3.2 0-4.7-.8-4.5-2.6.4-2.7 2.5-2.5 4.4-2.5 3.6 0 7.2.1 10.8 0 4.9-.1 7.5-3.2 6.7-8-1-5.5-2.1-11-3.2-16.5-.7-3.3-2.7-4.9-6.4-4.9-4.4-.1-8.8 0-13.2 0-.9 0-1.8 0-2.6-.1-1.6-.2-2.5-1.1-2.4-2.7.1-1.5 1.1-2.3 2.6-2.3h12c4.9-.2 7.5-3.3 6.6-8.1-.4-2.2-.8-4.4-1.4-6.6-.6-2.1.1-2.7 2.2-2.6 13.6.1 27.2 0 40.8 0h21.6c5 0 7.5-2 7.6-6 0-3.9-2.6-6.1-7.5-6.2h-76.5c-1.7 0-3.4 0-5-.1-1.7-.1-2.7-1-2.7-2.7s1.2-2.3 2.7-2.3c1.8 0 3.7.1 5.5 0 4.5-.2 6.8-3.2 6-7.6-.4-2.4-.8-4.9-1.4-7.3-.5-1.9.2-2.4 2-2.4H306.2c3.3 0 3.3 0 2.8 3.2-.3 2.1-.7 4.3-1 6.4-.6 4.6 2 7.5 6.6 7.7 1.5 0 3 0 4.6.1 1.6.4 2.7 1.3 2.7 3zm6.1-63.2c-.2 3.4 0 6.9-.4 10.3-1.1 11.8-10.6 20.6-22.5 20.7-21.6.1-43.1 0-64.7 0h-26.6c-13.6 0-23.4-9.7-23.7-23.3-.1-2.7.1-5.4 0-8.1-.1-1.9.8-2.5 2.5-2.5 6.6.1 13.1 0 19.7 0H325c2.2 0 3.1.5 3 2.9zm28.4-62.6c-7.8 11.4-12.4 23.2-14.6 35.2H174.7c-1.3-7.1-3.5-14.7-6.7-20.5-3.9-7.2-8.2-14.2-12.7-21-16.1-24.2-20.5-50.9-17.2-79.2 3.4-28.6 31.2-47.8 60.6-42.2 9 1.7 18.1 3.8 26.1 8.7 22.9 14.3 45.4 14.1 68.2-.5 11.2-7.2 24.2-9.4 37.3-8.6 26.7 1.6 46.2 22.9 48.7 50.2 2.7 29.1-6.7 54.9-22.6 77.9z" fill="#e8e8e8"/></symbol><symbol id="tooth-screw2" viewBox="0 0 500 500"><style/><path class="st1" d="M403.9 100.8c-10.6-27.1-29.6-44.3-58.2-50.7-26-5.8-50.2-.1-72.8 12.7-10.3 5.9-19.2 6.3-29.5-.1-13.4-8.3-28.5-12.3-44.4-14.1-43.5-4.9-79.7 19.7-90.6 62.1-5.5 21.3-4.2 42.5.4 63.8 4.3 19.8 14.7 36.8 25.5 53.2 4.5 6.9 7.2 16.4 8.5 23.5v16.6h35.5v2.3c-.1 3.5-.1 7 0 10.5.4 10.7 5.1 19.4 13.6 25.8 2.9 2.2 4.5 4.4 4.7 7.9 0 .5.1 1 .2 1.4.6 2.1.1 3.1-2.2 3.8-6.9 1.9-10.8 7.8-10.5 15.3.3 6.5 5.1 11.8 11.9 13.2 1.8.4 3.7.2 5.5.4 1.5.1 2.5 1.9 2.4 4-.1 1.8-1.5 1-2.4 1.1-1.2.1-2.4 0-3.6 0-7.5.4-13.7 6.8-13.8 14.2-.1 8.5 6.1 14.9 14.6 15.1 3.2.1 6.4 0 9.6.1 2.3 0 1.9 2 2.2 3.3.3 1.7-1 1.7-2.2 1.7h-4.6c-7.1.3-13.4 6.3-13.9 13.2-.6 8.2 4.3 14.6 12 15.9 4.1.7 8.3.3 12.4.3 2.1 0 2.6 1 2.9 2.7.3 1.6.8 3-1.4 3.8-2.6.9-4.7 2.7-6.2 5.1-3.1 4.8-3.6 10-.9 15 2.7 5.2 7.3 8 13.3 7.9 2.4 0 3.9.7 5.3 2.7 5 7.1 11.9 11.8 20.4 13.6 7.4 1.6 14.8 1.3 22.2.5 9.7-1 17.6-5.6 23.4-13.5 1.6-2.2 3.4-3.3 6.1-3.8 6.1-1.1 10-5 11.3-11 1.4-6-.3-11.3-5.4-14.8-2.5-1.8-2.6-3.5-2.2-6 .3-1.8 1.1-2.2 2.7-2.2 2.7.1 5.4.2 8.1 0 6.4-.5 11.2-3.5 13.3-9.6 2.1-5.8 1-11.2-3.5-15.6-3.4-3.3-7.5-4.2-12.1-4.1-1.2 0-2.9.4-2.6-1.7.2-1.7.1-3.6 2.8-3.5 2.5.2 5.1.1 7.7 0 10.2-.3 16.9-9.8 13.7-19.5-2.1-6.4-7.2-9.7-15.3-9.9-1.3 0-2.9.2-2.7-2 .2-1.8.4-3.4 2.9-3.1.6.1 1.3 0 1.9 0 6.7-.4 12.5-5.3 13.8-11.7 1.3-6.4-2-13.2-7.5-16-1.7-.9-4.5-.4-5.1-2.5-.5-1.8.5-3.9.7-5.9.2-2 1.1-3.5 2.8-4.7 8.3-5.8 13.3-13.7 14.7-23.7.6-4.2.2-8.5.3-12.7 0-.8.1-2 .2-3.4h31.8v-16.6h.4c.3-5.8 1.8-11.4 5.6-16.6 5.6-7.8 10.4-16 14.7-24.5 17.7-34.9 26.6-70.7 11.6-109.2zm-82 233.1c0 1.6-1.3 2.3-2.8 2.3h-7.7c-3.7.1-5.9 1.7-6.6 5.3-1.1 5.7-2.2 11.5-3.1 17.2-.6 3.7 2.1 6.7 5.9 6.8 3.5.1 7 .1 10.5.1 1.8 0 3.4.4 3.5 2.4.1 2.2-1.6 2.6-3.5 2.6H241.8c-3.9.2-6.2 2.5-6.1 6.2 0 3.5 2.4 5.9 6.1 6 6.6.1 13.3 0 19.9 0h32.4c3.1 0 3.1 0 2.6 3.1-.3 2-.7 4.1-1.1 6.1-.9 4.8 1.6 7.9 6.6 8 3.1.1 6.2 0 9.4.1h1.9c1.6.1 2.6.9 2.6 2.5s-1.1 2.4-2.7 2.5h-12.9c-.9 0-1.8 0-2.6.1-2.9.5-4.8 2.2-5.3 5.1-1.1 5.6-2.1 11.1-2.9 16.8-.7 4.7 1.5 7.2 6.1 7.5 1.7.1 3.1.6 3.1 2.5 0 2-1.6 2.6-3.3 2.6h-29.5c-3.9.1-6.6 2.7-6.6 6.1 0 3.3 2.7 5.9 6.5 6 3.5.1 7 .1 10.5.1h2.4c-3.1 3-6.8 4.6-10.8 4.9-5.6.4-11.3.6-17-.3-7.4-1.2-12.7-5.5-16-12.1-1.7-3.4-4-5-7.8-4.8-1.8.1-3.7 0-5.5 0-1.5 0-2.5-.8-2.5-2.3 0-1.6.9-2.5 2.5-2.7 1-.1 2.1 0 3.1-.1 4-.3 6.3-2.9 5.9-6.9-.2-2.4-.8-4.7-1.2-7.1-.6-3.2-.7-3.2 2.5-3.2h43.2c3.4 0 5.6-1.3 6.5-3.9 1.6-4.3-.9-8.1-5.7-8.3-3.4-.1-6.9-.1-10.3-.1h-59.2c-3.2 0-4.7-.8-4.5-2.6.4-2.7 2.5-2.5 4.4-2.5 3.6 0 7.2.1 10.8 0 4.9-.1 7.5-3.2 6.7-8-1-5.5-2.1-11-3.2-16.5-.7-3.3-2.7-4.9-6.4-4.9-4.4-.1-8.8 0-13.2 0-.9 0-1.8 0-2.6-.1-1.6-.2-2.5-1.1-2.4-2.7.1-1.5 1.1-2.3 2.6-2.3h12c4.9-.2 7.5-3.3 6.6-8.1-.4-2.2-.8-4.4-1.4-6.6-.6-2.1.1-2.7 2.2-2.6 13.6.1 27.2 0 40.8 0h21.6c5 0 7.5-2 7.6-6 0-3.9-2.6-6.1-7.5-6.2h-76.5c-1.7 0-3.4 0-5-.1-1.7-.1-2.7-1-2.7-2.7 0-1.7 1.2-2.3 2.7-2.3 1.8 0 3.7.1 5.5 0 4.5-.2 6.8-3.2 6-7.6-.4-2.4-.8-4.9-1.4-7.3-.5-1.9.2-2.4 2-2.4H306.2c3.3 0 3.3 0 2.8 3.2-.3 2.1-.7 4.3-1 6.4-.6 4.6 2 7.5 6.6 7.7 1.5 0 3 0 4.6.1 1.6.4 2.7 1.3 2.7 3zm6.1-63.2c-.2 3.4 0 6.9-.4 10.3-1.1 11.8-10.6 20.6-22.5 20.7-21.6.1-43.1 0-64.7 0h-26.6c-13.6 0-23.4-9.7-23.7-23.3-.1-2.7.1-5.4 0-8.1-.1-1.9.8-2.5 2.5-2.5 6.6.1 13.1 0 19.7 0H325c2.2 0 3.1.5 3 2.9zm28.4-62.6c-7.8 11.4-12.4 23.2-14.6 35.2H174.7c-1.3-7.1-3.5-14.7-6.7-20.5-3.9-7.2-8.2-14.2-12.7-21-16.1-24.2-20.5-50.9-17.2-79.2 3.4-28.6 31.2-47.8 60.6-42.2 9 1.7 18.1 3.8 26.1 8.7 22.9 14.3 45.4 14.1 68.2-.5 11.2-7.2 24.2-9.4 37.3-8.6 26.7 1.6 46.2 22.9 48.7 50.2 2.7 29.1-6.7 54.9-22.6 77.9z"/></symbol><symbol id="tooth-search" viewBox="0 0 155.1 183.4"><style>.st0{fill:#fff}</style><path class="st0" d="M30 43.7c-.5-5.1.3-9.8 3.3-14 1-1.5 1.9-3.1 2.5-4.9.8-2.7-.2-4.2-3-4.6h-.6c-1.5 0-3 .5-4 1.4-2.3 1.8-3.8 4.2-4.7 7-2.5 7.7-2.8 15.6-1 23.5 1 4.4 2.3 8.7 4.8 12.6 1.1 1.7 2.4 3.3 4.4 4 2.9 1 5.3-.8 5.2-3.7-.1-1.9-.9-3.5-1.7-5.1-2.6-5.2-4.6-10.5-5.2-16.2z"/><path class="st0" d="M136.3 32.1c-.1-.9-.2-1.7-.4-2.6-.9-4.7-2.2-9.3-4.8-13.5-1.7-2.7-3.6-5.2-6.1-7.3-6-5-12.9-7.9-20.6-8.6-4.6-.5-9.2.2-13.6 1.5-3 .9-5.8 2.4-8.6 3.7-4 1.9-8.2 3-12.6 3.2-6.1.3-11.7-1.1-17.1-3.9-9.9-5.3-20-6-30.5-2-6.2 2.5-11.3 6.3-15.2 11.9C2.1 21.3.4 29 .1 37.2c-.2 5 .1 10 .8 15 .9 6.3 2.9 12.2 5.3 18C6.9 71.9 8 73.5 9 75c2.1 3.1 3.9 6.3 5.1 10 1.3 4.3 1.8 8.7 1.9 13.2 0 4.3.1 8.7.3 13 .4 8 1 16.1 2.1 24 1 7.7 1.9 15.3 4 22.8 1.6 5.9 4 11.5 7.7 16.5 1.8 2.4 3.7 4.6 6 6.5 1.9 1.6 4.1 2.7 6.7 2.3 4.1-.6 6.6-3.1 7.8-7 .6-2 .9-4 1.2-6 1.7-11.1 3.1-22.3 5.2-33.3.9-4.6 1.8-9.2 3.5-13.5 1-2.6 2.1-5.1 3.7-7.4 1-1.4 1.9-2.7 3-4 .9-1 1.4-.9 2.4-.1 1.8 1.4 3.2 3.1 4.2 5.1 1.7 3.4 2.9 6.9 3.6 10.6 2.9 15.4 5.7 30.8 8.4 46.2.4 2.3 1 4.5 2.6 6.3 3.4 3.9 9.2 4.1 13 .4 3.1-3.1 5.2-6.9 7.5-10.6 3.6-5.8 5.7-12.3 7.4-19 3.1-11.9 4.4-24.1 4.7-36.3.1-4.2.1-8.4.1-12.7 1.9-.5 3.7-1.1 5.5-1.8.1-.1.4-.2.5-.2.1.1.2.4.3.5l2.4 4.1c1.3 2.3 2.6 4.6 4 6.9l1.5 2.6 5.4 9.3c.6 1 1.2 2 1.8 3.1l4.5 7.7c.4.7 1 1.2 1.7 1.6.3.1.5.2.8.3 1.6.4 3.4 0 4.4-1.2 1.5-1.7 1.7-3.6.6-5.5-1.5-2.5-2.9-5.1-4.4-7.6l-3.2-5.4c-2.5-4.3-5-8.6-7.5-13-1.5-2.5-2.9-5-4.4-7.7 0-.1-.1-.1-.1-.1l.1-.1c1.7-1.2 3.4-2.7 5-4.4 3.4-3.4 6.1-7.5 8.1-12 1.1-2.6 2-5.5 2.6-8.9.6-3.1.8-6.4.5-10.1-.1-2.1-.5-4.2-1.1-6.5-.9-3.7-2.3-7-3.9-10-2-3.6-4.6-6.8-7.7-9.7-.7-.6-1.4-1.2-2.2-1.8zm-23.4 79c-.3 10.7-1.2 21.3-3.4 31.8-1.4 6.5-3 13-5.4 19.2-1.8 4.6-4.5 8.6-8.4 11.6-.3.2-.5.5-.8.4-.4-.1-.2-.6-.3-.9-1.3-11.6-2.8-23.1-5.7-34.5-1.8-7.1-3.6-14.1-5.9-21-1.9-5.5-4.9-10.4-9.5-14-3.6-2.9-8.5-2.4-11.7.9-2.6 2.7-4.3 6-6.2 9.3-3.3 5.6-4.7 11.9-6 18.2-1.5 7-2.8 14-3.9 21.1-.7 4.5-1.1 9-2.1 13.4-.5 2.2-1.2 4.4-2 6.6-.3.7-.5.9-1.1.2-5.1-5.8-8.5-12.4-10.8-19.7-2-6.5-2.9-13.3-3.6-20.1-.7-7.8-1.2-15.5-1.5-23.3-.3-5.7-.5-11.4-.6-17-.2-5.3-1.6-10.2-3.7-15-1.9-4.2-4.7-7.9-6.7-12.1-3.2-6.7-5-13.7-5.3-21.2-.3-6 .2-11.9 1.8-17.6 2.7-9.5 8.8-15.8 18.6-17.9 1.7-.4 3.5-.5 5.1-.5 4.4-.1 8.4 1 12.4 2.4 3.4 1.2 6.6 3.1 10.1 4.2 8.1 2.6 16.1 2.3 24.2-.1 3.6-1.1 7-2.9 10.6-4.1 6.5-2.2 13-3 19.7-.9 5.2 1.7 9.2 4.9 12.1 9.3 1.3 1.9 2.3 4 3 6.1-2.7-1.1-5.3-1.8-8-2.3-3.2-.5-6-.7-8.5-.6-2.8.1-5.5.6-8.2 1.2-4.1 1-8 2.8-11.8 5.2-2.5 1.6-5 3.6-7.2 5.9-2 2-3.7 4.2-5.1 6.5-2.4 3.8-3.9 7.4-4.6 10.9-.8 2.8-1.3 5.7-1.4 9.3-.1 4 .4 8 1.5 11.8.9 3.2 2.2 6.2 3.7 9 2 3.4 4.4 6.5 7.5 9.5 3.7 3.6 8.3 6.4 13.5 8.3 4.9 1.8 10.1 2.6 15.5 2.4.1 2.9.1 5.5.1 8.1zm28.3-40c-4.1 16.1-20.6 26.1-36.8 22.4-8.3-1.9-15.3-6.9-19.7-14-4.3-7.1-5.7-15.5-3.6-23.7 4.1-16.4 20.2-26.5 36.7-22.9.4.1.9.2 1.3.3 7.8 2 14.4 6.9 18.6 13.8 4.4 7.4 5.7 15.9 3.5 24.1z"/></symbol><symbol id="tooth-shield" viewBox="0 0 500 500"><style>.st1{fill:#515151}</style><path class="st1" d="M258 425.2c0-6.5.2-13 0-19.4-.7-16.1-10.7-26.9-24-26.5-13.9.5-24.5 11.9-24.7 27.2-.2 19.7 1.5 39.6-3.3 59-6.7 27.1-33.6 39.2-54 23.9-11.6-8.7-20.8-19.5-26.4-33.2-5.8-14-8.5-28.7-10.5-43.6-3.2-24.5-2.7-48.8 2.5-73.2 3.5-16.7 2.4-32.6-7.7-47.9C99.2 275 88.8 258 84.5 238.2c-4.7-21.3-5.9-42.4-.4-63.8 10.9-42.3 47.1-67 90.6-62.1 15.9 1.8 31 5.8 44.4 14.1 10.3 6.4 19.2 5.9 29.5.1 22.6-12.9 46.8-18.5 72.8-12.7 28.6 6.3 47.6 23.5 58.2 50.7 15 38.4 6.1 74.3-11.5 109.3-4.3 8.5-9 16.7-14.7 24.5-8.1 11.2-5.6 24.5-3.8 36.7 3.3 23.1 4.3 46.1 3.4 69.3-.9 24.3-7.8 47-20.6 67.7-5.3 8.5-12.3 15.4-21.8 19.5-21 9.2-41.2.2-47.7-21.7-4.5-14.5-5.1-29.5-4.9-44.6zm31.4-4.2c.3 10.5-.5 21.2 1.9 31.6.8 3.3.6 7.4 4.7 8.3 4.1.9 5.8-3 7.9-5.4 5.1-5.6 8.9-12.3 10.8-19.5 7.4-28.3 10.1-57 4.1-86-5.7-27.7-3.9-53.5 13.1-78 15.9-23 25.3-48.8 22.6-78-2.5-27.3-22-48.5-48.7-50.2-13.1-.8-26.1 1.4-37.3 8.6-22.8 14.6-45.3 14.8-68.2.5-7.9-5-17-7-26.1-8.7-29.4-5.6-57.2 13.7-60.6 42.2-3.4 28.3 1.1 55 17.2 79.2 4.5 6.8 8.8 13.8 12.7 21 6.4 11.6 9.1 23.9 7.5 37.4-3.1 27.4-7.7 54.7-5 82.4 1.8 18.5 5.8 36.4 17.5 51.6 1.8 2.4 4 5.4 7.4 4.6 4-.9 4.7-4.8 4.9-8.1.5-8.8 2.2-17.5 1.2-26.5-1.5-13.6-.8-27.2 3.1-40.5 7.5-25.1 30.1-41.6 56.5-39.8 21.2 1.4 46.8 16.9 51.4 43.8 1.8 9.8 1.2 19.7 1.4 29.5z"/><path d="M441.8 63.7V45.3c0-1-.3-1.5-1.4-1.4-1.6.1-3.1.2-4.7.2-7.1 0-14.1-.5-21.2-1.5-8.6-1.2-16.8-3.6-24.4-8-8-4.6-15.2-10.1-22-16.4-.6-.6-1-.6-1.6 0-2.4 2.4-4.9 4.6-7.5 6.7-6.6 5.4-13.6 10.2-21.6 13.5-8.7 3.6-17.9 4.6-27.1 5.3-5.1.4-10.1.6-15.2.3-1.5-.1-1.5 0-1.5 1.5v22.3c0 7.4 0 14.9.4 22.3.4 8.1 1.3 16.1 2.6 24.1 2.4 13.7 6.2 26.9 12.4 39.4 7.3 14.9 17.3 27.6 30.8 37.4 7.8 5.7 16.3 10 25.7 12.6 1.2.3 2.3.4 3.5 0 5.9-1.6 11.4-3.9 16.7-6.8 15.2-8.3 26.9-20.2 35.8-35 7.2-11.8 11.9-24.6 15.1-38 3.6-15.1 4.9-30.4 5-45.9.3-4.7.2-9.4.2-14.2z" fill="#fff"/><path class="st1" d="M280.5 87.2V41.4c.1-.2.1-.5.2-.7 1.6-5.8 5.4-9.3 11.4-10.3 2.4-.4 4.8 0 7.2 0 7.1 0 14.1-.5 21.1-1.5 9-1.2 17.1-4.4 24.4-9.7 4.8-3.5 9.2-7.3 13.4-11.4 2-1.9 4.3-3.4 7-3.9h4.8c3 .6 5.4 2.1 7.7 4 3.8 3.2 7.6 6.4 11.7 9.3 5.7 4.1 11.4 8 18.3 9.9 7.1 2 14.3 2.7 21.6 3 4.4.2 8.7.1 13.1 0 2.3 0 4.4.6 6.5 1.7 3.8 2.1 5.9 5.4 6.9 9.5v45.8c-.2 2.8-.4 5.6-.6 8.5-.5 8.5-1.7 17-3.3 25.3-3.1 15.9-8.2 31.1-16.2 45.2-8.2 14.5-18.9 26.7-32.5 36.3-10.1 7.1-21 12.3-33.1 15h-4.6c-2.5-.6-4.9-1.2-7.3-2-14.9-5-27.9-13.3-39-24.4-10.4-10.4-18.4-22.5-24.3-36-8.8-19.9-12.8-40.8-14-62.4-.1-1.7-.2-3.5-.4-5.4zm161.7-23.5V45.3c0-1-.3-1.5-1.4-1.4-1.6.1-3.1.2-4.7.2-7.1 0-14.1-.5-21.2-1.5-8.6-1.2-16.8-3.6-24.4-8-8-4.6-15.2-10.1-22-16.4-.6-.6-1-.6-1.6 0-2.4 2.4-4.9 4.6-7.5 6.7-6.6 5.4-13.6 10.2-21.6 13.5-8.7 3.6-17.9 4.6-27.1 5.3-5.1.4-10.1.6-15.2.3-1.5-.1-1.5 0-1.5 1.5v22.3c0 7.4 0 14.9.4 22.3.4 8.1 1.3 16.1 2.6 24.1 2.4 13.7 6.2 26.9 12.4 39.4 7.3 14.9 17.3 27.6 30.8 37.4 7.8 5.7 16.3 10 25.7 12.6 1.2.3 2.3.4 3.5 0 5.9-1.6 11.4-3.9 16.7-6.8 15.2-8.3 26.9-20.2 35.8-35 7.2-11.8 11.9-24.6 15.1-38 3.6-15.1 4.9-30.4 5-45.9.2-4.7.2-9.4.2-14.2z"/><path class="st1" d="M355.1 147.9c-2.3 0-4.2-.8-5.8-2.4-10.6-10.6-21.3-21.2-31.9-31.9-3.3-3.3-3.2-8.4 0-11.7 3.2-3.2 8.3-3.2 11.7.1 8.4 8.4 16.8 16.7 25.1 25.1.7.7 1.1.8 1.9 0 16.9-16.9 33.8-33.9 50.8-50.8 2.4-2.5 5.3-3.4 8.6-2.4 5.4 1.6 7.5 8.1 4.2 12.6-.3.5-.7.9-1.1 1.3-19.1 19.1-38.2 38.2-57.2 57.3-1.8 1.8-3.8 2.8-6.3 2.8z"/></symbol><symbol id="tooth-simple" viewBox="0 0 136.9 183.4"><style/><path class="st0" d="M128.2 74.4c6-10 8.6-21 8.6-34.4.1-2.3-.2-6.4-.9-10.4-.9-4.7-2.2-9.3-4.8-13.5-1.7-2.7-3.6-5.2-6.1-7.3-6-5-12.9-7.9-20.6-8.6-4.6-.5-9.2.2-13.6 1.5-3 .9-5.8 2.4-8.6 3.7-4 1.9-8.2 3-12.6 3.2-6.1.3-11.7-1.1-17.1-3.9-9.9-5.3-20-6-30.5-2-6.2 2.4-11.3 6.2-15.2 11.8C2.1 21.3.4 29 .1 37.2c-.2 5 .1 10 .8 15 .9 6.3 2.9 12.2 5.3 18C6.9 71.9 8 73.5 9 75c2.1 3.1 3.9 6.3 5.1 10 1.3 4.3 1.8 8.7 1.9 13.2 0 4.3.1 8.7.3 13 .4 8 1 16.1 2.1 24 1 7.7 1.9 15.3 4 22.8 1.6 5.9 4 11.5 7.7 16.5 1.8 2.4 3.7 4.6 6 6.5 1.9 1.6 4.1 2.7 6.7 2.3 4.1-.6 6.6-3.1 7.8-7 .6-2 .9-4 1.2-6 1.7-11.1 3.1-22.3 5.2-33.3.9-4.6 1.8-9.2 3.5-13.5 1-2.6 2.1-5.1 3.7-7.4 1-1.4 1.9-2.7 3-4 .9-1 1.4-.9 2.4-.1 1.8 1.4 3.2 3.1 4.2 5.1 1.7 3.4 2.9 6.9 3.6 10.6 2.9 15.4 5.7 30.8 8.4 46.2.4 2.3 1 4.5 2.6 6.3 3.4 3.9 9.2 4.1 13 .4 3.1-3.1 5.2-6.9 7.5-10.6 3.6-5.8 5.7-12.3 7.4-19 3.1-11.9 4.4-24.1 4.7-36.3.2-6 .1-12.1 0-18.2 0-4.8.9-9.5 2.7-14 1.2-2.8 2.9-5.4 4.5-8.1zM113.1 93c-.5 6 0 12.1-.2 18.1-.3 10.7-1.2 21.3-3.4 31.8-1.4 6.5-3 13-5.4 19.2-1.8 4.6-4.5 8.6-8.4 11.6-.3.2-.5.5-.8.4-.4-.1-.2-.6-.3-.9-1.3-11.6-2.8-23.1-5.7-34.5-1.8-7.1-3.6-14.1-5.9-21-1.9-5.5-4.9-10.4-9.5-14-3.6-2.9-8.5-2.4-11.7.9-2.6 2.7-4.3 6-6.2 9.3-3.3 5.6-4.7 11.9-6 18.2-1.5 7-2.8 14-3.9 21.1-.7 4.5-1.1 9-2.1 13.4-.5 2.2-1.2 4.4-2 6.6-.3.7-.5.9-1.1.2-5.1-5.8-8.5-12.4-10.8-19.7-2-6.5-2.9-13.3-3.6-20.1-.7-7.8-1.2-15.5-1.5-23.3-.3-5.7-.5-11.4-.6-17-.2-5.3-1.6-10.2-3.7-15-.1-.1-.1-.2-.2-.4h31.1c0-9.4 7.7-17.1 17.1-17.1 9.4 0 17.1 7.7 17.1 17.1h31.2c-1.8 4.8-3.1 9.8-3.5 15.1zM91.9 69.2c-3.6-9.5-12.8-16.3-23.5-16.3s-19.9 6.8-23.5 16.3H15.2c-.5-1-1.1-1.9-1.5-2.9-3.2-6.7-5-13.7-5.3-21.2-.3-6 .2-11.9 1.8-17.6C12.9 18 19 11.7 28.8 9.6c1.7-.4 3.5-.5 5.1-.5 4.4-.1 8.4 1 12.4 2.4 3.4 1.2 6.6 3.1 10.1 4.2 8.1 2.6 16.1 2.3 24.2-.1 3.6-1.1 7-2.9 10.6-4.1 6.5-2.2 13-3 19.7-.9 5.2 1.7 9.2 4.9 12.1 9.3 3 4.4 4.2 9.5 4.8 14.7.6 6 .5 12-.6 18-1.1 5.9-3.1 11.3-5.8 16.6H91.9z"/></symbol><symbol id="tooth-simple2" viewBox="0 0 126.7 158.9"><style>.st0{fill:#d47226}</style><path class="st0" d="M73.3 129.6c0-2.7.1-5.4 0-8-.3-6.7-4.4-11.1-9.9-10.9-5.7.2-10.1 4.9-10.2 11.2-.1 8.1.6 16.4-1.4 24.4-2.8 11.2-13.9 16.2-22.3 9.9-4.8-3.6-8.6-8.1-10.9-13.7-2.4-5.8-3.5-11.9-4.3-18-1.3-10.1-1.1-20.2 1-30.2 1.4-6.9 1-13.5-3.2-19.8-4.4-6.8-8.7-13.8-10.5-22-1.9-9-2.4-17.7-.1-26.5C6 8.5 21-1.7 38.9.3c6.6.7 12.8 2.4 18.3 5.8 4.3 2.6 7.9 2.4 12.2 0C78.7.8 88.7-1.5 99.5.9c11.8 2.6 19.7 9.7 24 20.9 6.2 15.9 2.5 30.7-4.8 45.2-1.8 3.5-3.7 6.9-6.1 10.1-3.3 4.6-2.3 10.1-1.6 15.2 1.4 9.5 1.8 19 1.4 28.6-.4 10-3.2 19.4-8.5 28-2.2 3.5-5.1 6.4-9 8.1-8.7 3.8-17 .1-19.7-9-1.7-6-1.9-12.2-1.9-18.4zm13-1.7c.1 4.3-.2 8.8.8 13.1.3 1.4.2 3.1 1.9 3.4 1.7.4 2.4-1.2 3.3-2.2 2.1-2.3 3.7-5.1 4.5-8.1 3.1-11.7 4.2-23.5 1.7-35.5-2.4-11.4-1.6-22.1 5.4-32.2 6.6-9.5 10.5-20.2 9.3-32.2-1-11.3-9.1-20-20.1-20.7-5.4-.3-10.8.6-15.4 3.6-9.4 6-18.7 6.1-28.2.2-3.3-2.1-7-2.9-10.8-3.6-12.1-2.3-23.6 5.7-25 17.4s.5 22.7 7.1 32.7c1.9 2.8 3.6 5.7 5.2 8.7 2.6 4.8 3.8 9.9 3.1 15.5-1.3 11.3-3.2 22.6-2.1 34 .7 7.6 2.4 15 7.2 21.3.7 1 1.7 2.2 3.1 1.9 1.7-.4 1.9-2 2-3.3.2-3.6.9-7.2.5-10.9-.6-5.6-.3-11.2 1.3-16.7 3.1-10.4 12.4-17.2 23.3-16.4 8.8.6 19.3 7 21.2 18.1.9 3.7.6 7.8.7 11.9z"/><path class="st0" d="M82.5 68.5c-8.8 4.8-24.3 9.1-38.4 1.7-2-1-2.6-3.5-1.2-5.1 1.2-1.4 3.3-1.9 5-.9 12.3 6.4 25.1 1.3 30.7-1.7 1.7-.9 3.8-.5 5 .9 1.4 1.8.8 4.1-1.1 5.1z"/><circle class="st0" cx="48.5" cy="44.2" r="6.6"/><circle class="st0" cx="78.2" cy="44.2" r="6.6"/></symbol><symbol id="tooth-treatment" viewBox="0 0 500 500"><style>.st1{fill:#515151}</style><path class="st1" d="M236 425.2c0-6.5.2-13 0-19.4-.7-16.1-10.7-26.9-24-26.5-13.9.5-24.5 11.9-24.7 27.2-.2 19.7 1.5 39.6-3.3 59-6.7 27.1-33.6 39.2-54 23.9-11.6-8.7-20.8-19.5-26.4-33.2-5.8-14-8.5-28.7-10.5-43.6-3.2-24.5-2.7-48.8 2.5-73.2 3.5-16.7 2.4-32.6-7.7-47.9C77.2 275 66.8 258 62.5 238.2c-4.7-21.3-5.9-42.4-.4-63.8 10.9-42.3 47.1-67 90.6-62.1 15.9 1.8 31 5.8 44.4 14.1 10.3 6.4 19.2 5.9 29.5.1 22.6-12.9 46.8-18.5 72.8-12.7 28.6 6.3 47.6 23.5 58.2 50.7 15 38.4 6.1 74.3-11.5 109.3-4.3 8.5-9 16.7-14.7 24.5-8.1 11.2-5.6 24.5-3.8 36.7 3.3 23.1 4.3 46.1 3.4 69.3-.9 24.3-7.8 47-20.6 67.7-5.3 8.5-12.3 15.4-21.8 19.5-21 9.2-41.2.2-47.7-21.7-4.5-14.5-5.1-29.5-4.9-44.6zm31.4-4.2c.3 10.5-.5 21.2 1.9 31.6.8 3.3.6 7.4 4.7 8.3 4.1.9 5.8-3 7.9-5.4 5.1-5.6 8.9-12.3 10.8-19.5 7.4-28.3 10.1-57 4.1-86-5.7-27.7-3.9-53.5 13.1-78 15.9-23 25.3-48.8 22.6-78-2.5-27.3-22-48.5-48.7-50.2-13.1-.8-26.1 1.4-37.3 8.6-22.8 14.6-45.3 14.8-68.2.5-7.9-5-17-7-26.1-8.7-29.4-5.6-57.2 13.7-60.6 42.2-3.4 28.3 1.1 55 17.2 79.2 4.5 6.8 8.8 13.8 12.7 21 6.4 11.6 9.1 23.9 7.5 37.4-3.1 27.4-7.7 54.7-5 82.4 1.8 18.5 5.8 36.4 17.5 51.6 1.8 2.4 4 5.4 7.4 4.6 4-.9 4.7-4.8 4.9-8.1.5-8.8 2.2-17.5 1.2-26.5-1.5-13.6-.8-27.2 3.1-40.5 7.5-25.1 30.1-41.6 56.5-39.8 21.2 1.4 46.8 16.9 51.4 43.8 1.8 9.8 1.2 19.7 1.4 29.5z"/><path d="M390.6 65.2C379 69.8 280 175.8 280 175.8l41.9 40.8L433.7 103l-43.1-37.8z" fill="#fff"/><path class="st1" d="M223.9 266.2c1-1.2 2-2.4 3.1-3.5l42.9-42.9c1.3-1.3 2.3-2.5 2.5-4.4.2-2.1 1.4-3.7 2.9-5.1 3.4-3.3 6.7-6.8 10.1-10 1.6-1.5 1.8-2.5.1-4.2-4.4-4.2-8.7-8.6-13-13-4.9-4.9-4.9-8.7 0-13.6L379 63c1.3-1.3 2.1-2.1.3-3.9-3.3-3.3-3.3-7.8-.2-10.9 3.1-3 7.5-3 10.9.3 7 6.8 13.8 13.8 20.7 20.7 3.1 3.1 2.4 3.1 5.5.1 11.4-11.4 22.9-22.8 34.3-34.3 2.9-2.9 2.9-2.9.1-5.7-3.3-3.3-6.7-6.5-9.8-9.9-3.7-4-2.7-9.7 1.9-12.1 2.9-1.5 6.3-.9 9 1.7 4 3.9 8 7.9 11.9 11.9l23.3 23.3c2.5 2.5 3.6 5.3 2.3 8.7-1.9 5.2-8.1 6.5-12.3 2.6-3.6-3.3-6.9-6.8-10.3-10.2-2.5-2.4-2.5-2.4-4.8-.1l-35.2 35.2c-2.3 2.3-2.3 2.3.1 4.8l19.8 19.8c.7.7 1.4 1.3 1.9 2.1 2.7 3.3 2.4 7.5-.5 10.3-2.9 2.7-7.2 3-10.1.1-2-2-3.1-1.6-4.9.2-35.2 35.3-70.5 70.5-105.7 105.8-5.4 5.4-8.9 5.4-14.3 0-4.2-4.2-8.4-8.2-12.4-12.5-1.8-1.9-2.9-1.7-4.5.1-3.2 3.4-6.6 6.6-9.9 9.9-1.2 1.2-2.6 2.5-4.3 2.7-2.7.2-4.3 1.8-6.1 3.6l-42 42c-1.1 1.1-2.3 2.1-3.4 3.1-2.1 0-4.8.7-6-.4-1.2-.9-.4-3.8-.4-5.8zm155.9-154.4c.1-3.3 3.6-5.4 6.5-3.9 1 .6 2 1.4 2.8 2.3 4.4 4.4 8.9 8.7 13.2 13.2 1.3 1.4 2.2 1.4 3.6 0 5.6-5.8 11.3-11.4 17-17.1 1.3-1.3 1.3-2.1 0-3.3l-29.7-29.7c-1.3-1.3-2.1-1.2-3.3.1-2.6 2.8-5.4 5.4-8 8.1l-92.6 92.6c-1.2 1.2-2.6 2.2-.6 4.1 9.9 9.8 19.7 19.6 29.5 29.5 1.3 1.3 2.1 1.3 3.4 0 8.2-8.3 16.5-16.5 24.8-24.7 1.4-1.4 1.3-2.3-.1-3.6-4.8-4.7-9.5-9.4-14.1-14.1-2.3-2.3-2.4-5-.6-6.9 2-2.1 4.5-1.9 7.1.4l1.5 1.5c4.2 4.2 8.5 8.4 12.6 12.7 1.3 1.3 2.3 1.5 3.6.1 1.8-2 3.8-3.8 5.7-5.7 2.5-2.5 2.5-2.5.1-5-4.5-4.5-9.1-9-13.5-13.6-2.6-2.7-2.2-6.4.9-7.8 2.3-1 4.2-.2 5.8 1.5 4.6 4.6 9.3 9.1 13.7 13.8 1.7 1.8 2.8 1.6 4.3-.1 1.8-2.1 3.8-4 5.9-5.9 1.6-1.4 1.7-2.4.1-3.9-4.4-4.2-8.7-8.6-13-13-.8-.9-1.7-1.8-2.3-2.8-1.1-1.9-.7-3.7.8-5.2 1.4-1.5 3.1-1.7 5-1 1.1.4 1.9 1.2 2.6 2 4.5 4.5 9.1 9 13.5 13.6 1.4 1.4 2.2 1.4 3.5 0 2.1-2.3 4.3-4.5 6.6-6.6 1.4-1.3 1.2-2.1-.1-3.3-4.7-4.6-9.3-9.3-14-13.9-1.2-1.3-2.2-2.6-2.2-4.4z"/></symbol></svg>