<?xml version="1.0" encoding="utf-8"?>
<!-- Generator: Adobe Illustrator 22.0.1, SVG Export Plug-In . SVG Version: 6.00 Build 0)  -->
<svg version="1.1" id="Слой_1" xmlns="http://www.w3.org/2000/svg" xmlns:xlink="http://www.w3.org/1999/xlink" x="0px" y="0px"
	 viewBox="0 0 500 500" style="enable-background:new 0 0 500 500;" xml:space="preserve">
<style type="text/css">
	.st0{fill:#606060;}
	.st1{fill:#515151;}
	.st2{fill:#FFFFFF;}
</style>
<path class="st0" d="M99.5,260.5c10.6-9.1,23.9-11.8,36.7-15.6c10.4-3.1,21-5.5,31.6-7.6c7.5-1.5,7.2-3.7,3.9-10
	c-17.2-32.6-32.8-66.1-32.9-103.9c-0.1-32.3,12.4-59.7,39.2-78.8c37-26.3,76.5-27.8,117.1-9.2c6,2.7,11.1,3.3,17.1,2.1
	c16.7-3.2,32.9-0.6,46.7,8.7c27.7,18.7,47.5,59.7,36.6,95.1c-1.4,4.5-1.8,8.9-1.5,13.5c1,21.3-4.8,41.2-13.5,60.3
	c-2.3,4.9-3.7,10.2-8.6,14c-4.3,3.4-3.4,6.4,2.8,7.4c19.7,3.4,38.9,8.8,57.5,16.1c11.5,4.6,14.4,8.6,12.7,20.7
	c-7.4,52.2-15,104.4-22.4,156.5c-2.2,15.2-4,30.5-6.2,45.7c-1.7,11.6-5.2,14.5-17,14.5c-85,0-170,0-254.9-0.1
	c-11.9,0-14.5-2-16.2-13.9c-7.5-51.3-14.6-102.7-22.1-154c-1.9-13.2-4.4-26.4-6.6-39.6C99.5,275.4,99.5,267.9,99.5,260.5z
	 M180.1,175.6c-0.4,4.3,0.5,8.5,1.7,12.6c3.4,11.7,9.6,21.8,17.2,31.2c19.1,23.8,44.6,36,74.5,35.1c49.4-1.6,84.1-33.1,93.1-81.8
	c3.2-17.2,2.9-17.7-12.8-23.8c-2.7-1-5.3-2-7.9-3.2c-18.5-8.1-33.7-20.1-44.1-37.5c-2.5-4.1-3.3-10.5-6.8-12.4
	c-4.9-2.7-8.4,4-12.7,6.3c-15.4,8.3-32.5,10-49.1,13.6C200.4,122.6,182.8,141.9,180.1,175.6z M316.9,465.5c20.5,0,41,0,61.6,0
	c12.9,0,12.8,0,14.7-12.9c7.7-55,15.2-110,23.5-164.9c1.4-9-1.7-12.7-8.9-15.2c-11.1-3.8-22.3-6.9-33.9-8.7c-4.4-0.7-6.8,0.3-8,5
	c-9.9,38.9-34.3,68.2-63,94.5c-9.7,8.8-19.7,17.3-29.3,26.2c-17.8,16.6-25,38.2-28.3,61.6c-2,14.4-2.3,14.4,11.9,14.4
	C277,465.5,296.9,465.5,316.9,465.5z M184.6,465.4c7.7,0,15.4-0.3,23.1,0.1c6.9,0.3,9.2-2.4,10-9.3c3.1-28.7,10.2-56.1,30.4-78.3
	c3.2-3.5,2.1-5.6-0.9-8.4c-7.3-6.8-14.3-13.9-21.2-21c-21.9-22.9-40.6-47.8-47.3-79.7c-1.1-5.1-3.3-6.6-8.3-5.2
	c-11.8,3.3-23.6,6.6-35.6,9.2c-6.8,1.5-8.6,4.5-7.5,11.3c3.3,20.5,5.8,41.2,8.8,61.7c5.5,37.5,11.1,74.9,16.4,112.4
	c0.8,5.4,3,7.4,8.3,7.2C168.7,465.2,176.7,465.4,184.6,465.4z M338.6,263.2c-2.6-0.9-3.9,0.5-5.3,1.3
	c-38.2,21.2-76.9,22.2-116.2,3.3c-3.1-1.5-7-5.5-9.9-2.9c-3.3,3,0.1,7.5,1.3,11.1c5.5,16.2,15.6,29.3,26.6,42.3
	c10.2,12,21.1,23,33.1,33.1c3.4,2.8,5.9,2.5,8.9-0.3c4.9-4.7,9.9-9.4,14.9-14c18.2-16.8,33.3-35.8,43.4-58.7
	C337.3,273.5,339.6,268.6,338.6,263.2z M165.5,129.6c2.7-0.3,3.3-2.1,4.3-3.4c15-21.7,36.1-33.2,61.8-37.4
	c8.4-1.4,16.8-3.1,25.1-5.1c10.7-2.5,19.5-7.8,25.2-17.5c2.2-3.8,2.4-6.1-2.5-8.6c-12.9-6.8-26.6-7.9-40.7-7.3
	c-34.5,1.5-60.8,21.4-70.4,53.6C165.8,112.1,164.3,120.7,165.5,129.6z M371.5,118.5c-1-15.6-6.5-29.3-16.5-40.7
	c-7.7-8.8-17.8-14.2-29.8-14.9c-8.2-0.5-10.2,2.2-8.5,10.1c5.6,26.5,21.8,42.9,47.3,51.1C371,126.4,372.2,124.1,371.5,118.5z"/>
<rect x="343.3" y="390" class="st0" width="11.5" height="58.5"/>
<rect x="343.3" y="389.5" transform="matrix(-1.836970e-16 1 -1 -1.836970e-16 767.75 69.75)" class="st0" width="11.5" height="58.5"/>
</svg>
