<svg id="Слой_1" data-name="Слой 1" xmlns="http://www.w3.org/2000/svg" viewBox="0 0 195 45"><defs><style>.cls-1{fill:#ef7317;}.cls-2{fill:#ff9110;}</style></defs><title>активная кнопка--08</title><path class="cls-1" d="M173.5,45H21.5A21.47,21.47,0,0,1,0,23.5H0A21.47,21.47,0,0,1,21.5,2h152A21.47,21.47,0,0,1,195,23.5h0A21.47,21.47,0,0,1,173.5,45Z"/><path class="cls-2" d="M173.5,43H21.5A21.47,21.47,0,0,1,0,21.5H0A21.47,21.47,0,0,1,21.5,0h152A21.47,21.47,0,0,1,195,21.5h0A21.47,21.47,0,0,1,173.5,43Z"/></svg>