<?xml version="1.0" encoding="utf-8"?>
<!-- Generator: Adobe Illustrator 22.0.1, SVG Export Plug-In . SVG Version: 6.00 Build 0)  -->
<svg version="1.1" id="Слой_1" xmlns="http://www.w3.org/2000/svg" xmlns:xlink="http://www.w3.org/1999/xlink" x="0px" y="0px"
	 viewBox="0 0 500 500" style="enable-background:new 0 0 500 500;" xml:space="preserve">
<style type="text/css">
	<!-- .st0{fill:#606060;} -->
	<!-- .st1{fill:#515151;} -->
	<!-- .st2{fill:#FFFFFF;} -->
	.st3{fill:#515151;stroke:#515151;stroke-width:4;stroke-miterlimit:10;}
	.st4{fill:none;stroke:#515151;stroke-width:11;stroke-miterlimit:10;}
</style>
<path class="st1" d="M403.9,100.8c-10.6-27.1-29.6-44.3-58.2-50.7c-26-5.8-50.2-0.1-72.8,12.7c-10.3,5.9-19.2,6.3-29.5-0.1
	C230,54.4,214.9,50.4,199,48.6c-43.5-4.9-79.7,19.7-90.6,62.1c-5.5,21.3-4.2,42.5,0.4,63.8c4.3,19.8,14.7,36.8,25.5,53.2
	c4.5,6.9,7.2,16.4,8.5,23.5v16.6h35.5c0,1.1,0,1.9,0,2.3c-0.1,3.5-0.1,7,0,10.5c0.4,10.7,5.1,19.4,13.6,25.8
	c2.9,2.2,4.5,4.4,4.7,7.9c0,0.5,0.1,1,0.2,1.4c0.6,2.1,0.1,3.1-2.2,3.8c-6.9,1.9-10.8,7.8-10.5,15.3c0.3,6.5,5.1,11.8,11.9,13.2
	c1.8,0.4,3.7,0.2,5.5,0.4c1.5,0.1,2.5,1.9,2.4,4c-0.1,1.8-1.5,1-2.4,1.1c-1.2,0.1-2.4,0-3.6,0c-7.5,0.4-13.7,6.8-13.8,14.2
	c-0.1,8.5,6.1,14.9,14.6,15.1c3.2,0.1,6.4,0,9.6,0.1c2.3,0,1.9,2,2.2,3.3c0.3,1.7-1,1.7-2.2,1.7c-1.5,0-3,0-4.6,0
	c-7.1,0.3-13.4,6.3-13.9,13.2c-0.6,8.2,4.3,14.6,12,15.9c4.1,0.7,8.3,0.3,12.4,0.3c2.1,0,2.6,1,2.9,2.7c0.3,1.6,0.8,3-1.4,3.8
	c-2.6,0.9-4.7,2.7-6.2,5.1c-3.1,4.8-3.6,10-0.9,15c2.7,5.2,7.3,8,13.3,7.9c2.4,0,3.9,0.7,5.3,2.7c5,7.1,11.9,11.8,20.4,13.6
	c7.4,1.6,14.8,1.3,22.2,0.5c9.7-1,17.6-5.6,23.4-13.5c1.6-2.2,3.4-3.3,6.1-3.8c6.1-1.1,10-5,11.3-11c1.4-6-0.3-11.3-5.4-14.8
	c-2.5-1.8-2.6-3.5-2.2-6c0.3-1.8,1.1-2.2,2.7-2.2c2.7,0.1,5.4,0.2,8.1,0c6.4-0.5,11.2-3.5,13.3-9.6c2.1-5.8,1-11.2-3.5-15.6
	c-3.4-3.3-7.5-4.2-12.1-4.1c-1.2,0-2.9,0.4-2.6-1.7c0.2-1.7,0.1-3.6,2.8-3.5c2.5,0.2,5.1,0.1,7.7,0c10.2-0.3,16.9-9.8,13.7-19.5
	c-2.1-6.4-7.2-9.7-15.3-9.9c-1.3,0-2.9,0.2-2.7-2c0.2-1.8,0.4-3.4,2.9-3.1c0.6,0.1,1.3,0,1.9,0c6.7-0.4,12.5-5.3,13.8-11.7
	c1.3-6.4-2-13.2-7.5-16c-1.7-0.9-4.5-0.4-5.1-2.5c-0.5-1.8,0.5-3.9,0.7-5.9c0.2-2,1.1-3.5,2.8-4.7c8.3-5.8,13.3-13.7,14.7-23.7
	c0.6-4.2,0.2-8.5,0.3-12.7c0-0.8,0.1-2,0.2-3.4h31.8v-16.6c0.1,0,0.3,0,0.4,0c0.3-5.8,1.8-11.4,5.6-16.6c5.6-7.8,10.4-16,14.7-24.5
	C410,175.1,418.9,139.3,403.9,100.8z M321.9,333.9c0,1.6-1.3,2.3-2.8,2.3c-2.6,0-5.1,0-7.7,0c-3.7,0.1-5.9,1.7-6.6,5.3
	c-1.1,5.7-2.2,11.5-3.1,17.2c-0.6,3.7,2.1,6.7,5.9,6.8c3.5,0.1,7,0.1,10.5,0.1c1.8,0,3.4,0.4,3.5,2.4c0.1,2.2-1.6,2.6-3.5,2.6
	c-24.5,0-48.9,0-73.4,0c-1,0-1.9,0-2.9,0c-3.9,0.2-6.2,2.5-6.1,6.2c0,3.5,2.4,5.9,6.1,6c6.6,0.1,13.3,0,19.9,0c10.8,0,21.6,0,32.4,0
	c3.1,0,3.1,0,2.6,3.1c-0.3,2-0.7,4.1-1.1,6.1c-0.9,4.8,1.6,7.9,6.6,8c3.1,0.1,6.2,0,9.4,0.1c0.6,0,1.3,0,1.9,0
	c1.6,0.1,2.6,0.9,2.6,2.5c0,1.6-1.1,2.4-2.7,2.5c-4.3,0-8.6,0-12.9,0c-0.9,0-1.8,0-2.6,0.1c-2.9,0.5-4.8,2.2-5.3,5.1
	c-1.1,5.6-2.1,11.1-2.9,16.8c-0.7,4.7,1.5,7.2,6.1,7.5c1.7,0.1,3.1,0.6,3.1,2.5c0,2-1.6,2.6-3.3,2.6c-9,0-17.9,0-26.9,0
	c-0.9,0-1.8,0-2.6,0c-3.9,0.1-6.6,2.7-6.6,6.1c0,3.3,2.7,5.9,6.5,6c3.5,0.1,7,0.1,10.5,0.1c0.8,0,1.6,0,2.4,0
	c-3.1,3-6.8,4.6-10.8,4.9c-5.6,0.4-11.3,0.6-17-0.3c-7.4-1.2-12.7-5.5-16-12.1c-1.7-3.4-4-5-7.8-4.8c-1.8,0.1-3.7,0-5.5,0
	c-1.5,0-2.5-0.8-2.5-2.3c0-1.6,0.9-2.5,2.5-2.7c1-0.1,2.1,0,3.1-0.1c4-0.3,6.3-2.9,5.9-6.9c-0.2-2.4-0.8-4.7-1.2-7.1
	c-0.6-3.2-0.7-3.2,2.5-3.2c14.4,0,28.8,0,43.2,0c3.4,0,5.6-1.3,6.5-3.9c1.6-4.3-0.9-8.1-5.7-8.3c-3.4-0.1-6.9-0.1-10.3-0.1
	c-19.7,0-39.5,0-59.2,0c-3.2,0-4.7-0.8-4.5-2.6c0.4-2.7,2.5-2.5,4.4-2.5c3.6,0,7.2,0.1,10.8,0c4.9-0.1,7.5-3.2,6.7-8
	c-1-5.5-2.1-11-3.2-16.5c-0.7-3.3-2.7-4.9-6.4-4.9c-4.4-0.1-8.8,0-13.2,0c-0.9,0-1.8,0-2.6-0.1c-1.6-0.2-2.5-1.1-2.4-2.7
	c0.1-1.5,1.1-2.3,2.6-2.3c2.9,0,5.8,0,8.6,0c1.1,0,2.2,0,3.4,0c4.9-0.2,7.5-3.3,6.6-8.1c-0.4-2.2-0.8-4.4-1.4-6.6
	c-0.6-2.1,0.1-2.7,2.2-2.6c13.6,0.1,27.2,0,40.8,0c7.2,0,14.4,0,21.6,0c5,0,7.5-2,7.6-6c0-3.9-2.6-6.1-7.5-6.2c-25.5,0-51,0-76.5,0
	c-1.7,0-3.4,0-5-0.1c-1.7-0.1-2.7-1-2.7-2.7c0-1.7,1.2-2.3,2.7-2.3c1.8,0,3.7,0.1,5.5,0c4.5-0.2,6.8-3.2,6-7.6
	c-0.4-2.4-0.8-4.9-1.4-7.3c-0.5-1.9,0.2-2.4,2-2.4c9.1,0,18.2,0,27.3,0c22.5,0,45.1,0,67.6,0c3.3,0,3.3,0,2.8,3.2
	c-0.3,2.1-0.7,4.3-1,6.4c-0.6,4.6,2,7.5,6.6,7.7c1.5,0,3,0,4.6,0.1C320.8,331.3,321.9,332.2,321.9,333.9z M328,270.7
	c-0.2,3.4,0,6.9-0.4,10.3c-1.1,11.8-10.6,20.6-22.5,20.7c-21.6,0.1-43.1,0-64.7,0c-8.9,0-17.7,0-26.6,0c-13.6,0-23.4-9.7-23.7-23.3
	c-0.1-2.7,0.1-5.4,0-8.1c-0.1-1.9,0.8-2.5,2.5-2.5c6.6,0.1,13.1,0,19.7,0c15.7,0,31.3,0,47,0v0c21.9,0,43.8,0,65.7,0
	C327.2,267.8,328.1,268.3,328,270.7z M356.4,208.1c-7.8,11.4-12.4,23.2-14.6,35.2H174.7c-1.3-7.1-3.5-14.7-6.7-20.5
	c-3.9-7.2-8.2-14.2-12.7-21c-16.1-24.2-20.5-50.9-17.2-79.2c3.4-28.6,31.2-47.8,60.6-42.2c9,1.7,18.1,3.8,26.1,8.7
	c22.9,14.3,45.4,14.1,68.2-0.5c11.2-7.2,24.2-9.4,37.3-8.6c26.7,1.6,46.2,22.9,48.7,50.2C381.7,159.3,372.3,185.1,356.4,208.1z"/>
</svg>
