<?xml version="1.0" encoding="utf-8"?>
<!-- Generator: Adobe Illustrator 22.0.1, SVG Export Plug-In . SVG Version: 6.00 Build 0)  -->
<svg version="1.1" id="Слой_1" xmlns="http://www.w3.org/2000/svg" xmlns:xlink="http://www.w3.org/1999/xlink" x="0px" y="0px"
	 viewBox="0 0 158.9 158.9" style="enable-background:new 0 0 158.9 158.9;" xml:space="preserve">
<style type="text/css">
	.st0{fill:#D47226;}
</style>
<path class="st0" d="M158.8,39.1l0.1-3.3c-1.5,0-35.9-1.3-35.9-35.9h-0.5H117h-0.5c0,3.4-0.4,6.5-1,9.3c-4.2-4.1-9.5-7-16-8.4
	c-10.7-2.3-20.7,0.1-30,5.4c-4.3,2.4-7.9,2.6-12.2,0C51.8,2.8,45.5,1.1,39,0.4C21-1.7,6,8.5,1.5,26c-2.3,8.8-1.8,17.6,0.2,26.4
	c1.8,8.2,6.1,15.2,10.5,22c4.2,6.3,4.6,12.9,3.2,19.8c-2.1,10.1-2.4,20.1-1,30.2c0.8,6.2,1.9,12.2,4.3,18
	c2.3,5.7,6.1,10.1,10.9,13.7c8.4,6.3,19.5,1.3,22.3-9.9c2-8,1.3-16.2,1.4-24.4c0.1-6.3,4.5-11,10.2-11.2c5.5-0.2,9.6,4.3,9.9,10.9
	c0.1,2.6,0,5.3,0,8c-0.1,6.2,0.2,12.4,2,18.4c2.7,9,11,12.8,19.7,9c3.9-1.7,6.8-4.5,9-8.1c5.3-8.6,8.1-17.9,8.5-28
	c0.4-9.6,0-19.1-1.4-28.6c-0.7-5-1.8-10.5,1.6-15.2c1.2-1.7,2.3-3.4,3.4-5.2c0.3,1.9,0.4,4,0.4,6.2h0.5h5.5h0.5
	c0-34.5,34.5-35.8,35.9-35.9L158.8,39.1L158.8,39.1z M103.9,66.3c-7,10.1-7.8,20.8-5.4,32.2c2.5,12,1.4,23.8-1.7,35.5
	c-0.8,3-2.4,5.7-4.5,8.1c-0.9,1-1.6,2.6-3.3,2.2c-1.7-0.4-1.6-2.1-1.9-3.4c-1-4.3-0.7-8.7-0.8-13.1c-0.1-4,0.2-8.1-0.6-12.2
	c-1.9-11.1-12.5-17.5-21.2-18.1c-10.9-0.7-20.2,6.1-23.3,16.4c-1.6,5.5-1.9,11.1-1.3,16.7c0.4,3.7-0.3,7.3-0.5,10.9
	c-0.1,1.4-0.4,3-2,3.3c-1.4,0.3-2.3-0.9-3.1-1.9c-4.8-6.3-6.5-13.7-7.2-21.3c-1.1-11.4,0.8-22.7,2.1-34c0.7-5.6-0.5-10.7-3.1-15.5
	c-1.6-3-3.4-5.9-5.2-8.7c-6.7-10-8.5-21-7.1-32.7c1.4-11.8,12.9-19.7,25-17.4c3.8,0.7,7.5,1.5,10.8,3.6c9.5,5.9,18.8,5.8,28.2-0.2
	c4.6-3,10-3.9,15.4-3.6c6.9,0.4,12.6,4,16.2,9.4C99,35.2,81.6,35.8,80.6,35.9l0.1,3v0.2l-0.1,3.3c1,0,18.9,0.7,29,13.6
	C108.1,59.5,106.2,63,103.9,66.3z M119.9,61.4c-0.1-0.1-0.3-0.2-0.4-0.3c-5.2-12.8-15.9-19-24.8-22c9-3,20-9.4,25.1-22.7
	c5,13.3,16,19.7,25.1,22.7C135.9,42.1,125,48.4,119.9,61.4z"/>
</svg>
