<?xml version="1.0" encoding="utf-8"?>
<!-- Generator: Adobe Illustrator 22.0.1, SVG Export Plug-In . SVG Version: 6.00 Build 0)  -->
<svg version="1.1" id="Слой_1" xmlns="http://www.w3.org/2000/svg" xmlns:xlink="http://www.w3.org/1999/xlink" x="0px" y="0px"
	 viewBox="0 0 500 500" style="enable-background:new 0 0 500 500;" xml:space="preserve">
<style type="text/css">
	.st0{fill:#E8E8E8;}
</style>
<path class="st0" d="M274.3,348.6c0-6.5,0.2-13,0-19.4c-0.7-16.1-10.7-26.9-24-26.5c-13.9,0.5-24.5,11.9-24.7,27.2
	c-0.2,19.7,1.5,39.6-3.3,59c-6.7,27.1-33.6,39.2-54,23.9c-11.6-8.7-20.8-19.5-26.4-33.2c-5.8-14-8.5-28.7-10.5-43.6
	c-3.2-24.5-2.7-48.8,2.5-73.2c3.5-16.7,2.4-32.6-7.7-47.9c-10.8-16.4-21.2-33.4-25.5-53.2c-4.7-21.3-5.9-42.4-0.4-63.8
	c10.9-42.3,47.1-67,90.6-62.1c15.9,1.8,31,5.8,44.4,14.1c10.3,6.4,19.2,5.9,29.5,0.1c22.6-12.9,46.8-18.5,72.8-12.7
	c28.6,6.3,47.6,23.5,58.2,50.7c15,38.4,6.1,74.3-11.5,109.3c-4.3,8.5-9,16.7-14.7,24.5c-8.1,11.2-5.6,24.5-3.8,36.7
	c3.3,23.1,4.3,46.1,3.4,69.3c-0.9,24.3-7.8,47-20.6,67.7c-5.3,8.5-12.3,15.4-21.8,19.5c-21,9.2-41.2,0.2-47.7-21.7
	C274.7,378.6,274,363.6,274.3,348.6z M305.6,344.3c0.3,10.5-0.5,21.2,1.9,31.6c0.8,3.3,0.6,7.4,4.7,8.3s5.8-3,7.9-5.4
	c5.1-5.6,8.9-12.3,10.8-19.5c7.4-28.3,10.1-57,4.1-86c-5.7-27.7-3.9-53.5,13.1-78c15.9-23,25.3-48.8,22.6-78
	c-2.5-27.3-22-48.5-48.7-50.2c-13.1-0.8-26.1,1.4-37.3,8.6c-22.8,14.6-45.3,14.8-68.2,0.5c-7.9-5-17-7-26.1-8.7
	c-29.4-5.6-57.2,13.7-60.6,42.2c-3.4,28.3,1.1,55,17.2,79.2c4.5,6.8,8.8,13.8,12.7,21c6.4,11.6,9.1,23.9,7.5,37.4
	c-3.1,27.4-7.7,54.7-5,82.4c1.8,18.5,5.8,36.4,17.5,51.6c1.8,2.4,4,5.4,7.4,4.6c4-0.9,4.7-4.8,4.9-8.1c0.5-8.8,2.2-17.5,1.2-26.5
	c-1.5-13.6-0.8-27.2,3.1-40.5c7.5-25.1,30.1-41.6,56.5-39.8c21.2,1.4,46.8,16.9,51.4,43.8C306,324.7,305.4,334.5,305.6,344.3z"/>
<path class="st0" d="M487.2,474.9h-467V237.8h5.3c3.8-0.4,49.1-5.2,71.5-15.6c11.1-5.1,18-2.2,21.8,1.2c12.1,10.7,8.4,39.6,0.9,63
	c-10.7,33.5-4.6,112.2,32.5,136.1c19.4,12.5,39,8,54.7,4.5c12-2.7,21.3-12.2,23.7-24.1c6.5-30.5,12.5-37.3,16.4-39.8
	c2.6-1.6,5.5-1.9,8.3-0.8c8.9,3.6,15.3,24,19.2,40.4c2.2,9.2,7.6,21,20.9,24.3c10.9,2.7,27.2,4.7,43.1-0.9
	c57.3-20.2,42.1-120.4,38.4-140.3c-6.8-37.5-5.1-59.1,5.4-66.2c6.1-4.1,14.1-3.1,23.8,3c30.5,19.3,74.5,15.3,74.9,15.3l6-0.6V474.9z
	 M31.2,463.9h445V249.1c-13.9,0.5-48.9-0.3-75.8-17.3c-5.4-3.4-9.7-4.6-11.8-3.2c-1.6,1.1-9.2,8.8-0.7,55.1
	c2.3,12.4,7.2,44.7,3.5,76.5c-4.7,40.7-21.2,66.3-49.1,76.2c-18.5,6.6-37.1,4.3-49.4,1.3c-14.6-3.7-24.9-15.2-28.9-32.5
	c-4.2-18.1-9.1-28.9-11.8-32c-1.8,2.2-5.8,9.4-10.7,31.9c-3.3,16.1-15.9,28.9-32.1,32.6c-15.9,3.6-39.9,9-63.1-5.9
	c-19-12.2-32.8-37.4-39-71.1c-5.1-27.6-4.3-58,2-77.6c8.7-27,7.6-46.7,2.3-51.4c-2-1.7-5.3-1.5-9.9,0.6c-20.6,9.6-57.2,14.5-70.4,16
	V463.9z"/>
</svg>
