<?xml version="1.0" encoding="utf-8"?>
<!-- Generator: Adobe Illustrator 22.0.1, SVG Export Plug-In . SVG Version: 6.00 Build 0)  -->
<svg version="1.1" id="Слой_1" xmlns="http://www.w3.org/2000/svg" xmlns:xlink="http://www.w3.org/1999/xlink" x="0px" y="0px"
	 viewBox="0 0 500 500" style="enable-background:new 0 0 500 500;" xml:space="preserve">
<style type="text/css">
	.st0{fill:#606060;}
	.st1{fill:#515151;}
	.st2{fill:#FFFFFF;}
	.st3{fill:#ff961a;stroke:white;stroke-width:4;stroke-miterlimit:10;}
	.st4{fill:none;stroke:#515151;stroke-width:11;stroke-miterlimit:10;}
</style>
<path class="st1" d="M258,425.2c0-6.5,0.2-13,0-19.4c-0.7-16.1-10.7-26.9-24-26.5c-13.9,0.5-24.5,11.9-24.7,27.2
	c-0.2,19.7,1.5,39.6-3.3,59c-6.7,27.1-33.6,39.2-54,23.9c-11.6-8.7-20.8-19.5-26.4-33.2c-5.8-14-8.5-28.7-10.5-43.6
	c-3.2-24.5-2.7-48.8,2.5-73.2c3.5-16.7,2.4-32.6-7.7-47.9C99.2,275,88.8,258,84.5,238.2c-4.7-21.3-5.9-42.4-0.4-63.8
	c10.9-42.3,47.1-67,90.6-62.1c15.9,1.8,31,5.8,44.4,14.1c10.3,6.4,19.2,5.9,29.5,0.1c22.6-12.9,46.8-18.5,72.8-12.7
	c28.6,6.3,47.6,23.5,58.2,50.7c15,38.4,6.1,74.3-11.5,109.3c-4.3,8.5-9,16.7-14.7,24.5c-8.1,11.2-5.6,24.5-3.8,36.7
	c3.3,23.1,4.3,46.1,3.4,69.3c-0.9,24.3-7.8,47-20.6,67.7c-5.3,8.5-12.3,15.4-21.8,19.5c-21,9.2-41.2,0.2-47.7-21.7
	C258.4,455.3,257.8,440.3,258,425.2z M289.4,421c0.3,10.5-0.5,21.2,1.9,31.6c0.8,3.3,0.6,7.4,4.7,8.3c4.1,0.9,5.8-3,7.9-5.4
	c5.1-5.6,8.9-12.3,10.8-19.5c7.4-28.3,10.1-57,4.1-86c-5.7-27.7-3.9-53.5,13.1-78c15.9-23,25.3-48.8,22.6-78
	c-2.5-27.3-22-48.5-48.7-50.2c-13.1-0.8-26.1,1.4-37.3,8.6c-22.8,14.6-45.3,14.8-68.2,0.5c-7.9-5-17-7-26.1-8.7
	c-29.4-5.6-57.2,13.7-60.6,42.2c-3.4,28.3,1.1,55,17.2,79.2c4.5,6.8,8.8,13.8,12.7,21c6.4,11.6,9.1,23.9,7.5,37.4
	c-3.1,27.4-7.7,54.7-5,82.4c1.8,18.5,5.8,36.4,17.5,51.6c1.8,2.4,4,5.4,7.4,4.6c4-0.9,4.7-4.8,4.9-8.1c0.5-8.8,2.2-17.5,1.2-26.5
	c-1.5-13.6-0.8-27.2,3.1-40.5c7.5-25.1,30.1-41.6,56.5-39.8c21.2,1.4,46.8,16.9,51.4,43.8C289.8,401.3,289.2,411.2,289.4,421z"/>
<path class="st2" d="M176.6,137c4.7-6.8,9.3-13.6,14-20.5c1.9-2.7,4-5.3,7.6-3.4c3.9,2,2.7,5.2,0.8,8c-4.6,6.9-9.2,13.7-14,20.4
	c-2.2,3.1-2.5,5.4,1.2,7.7c3.5,2.2,5.8,1.4,7.6-2.1c0.9-1.6,1.8-3.2,2.9-4.7c1.7-2.3,4-3.5,6.7-1.8c2.6,1.7,2.7,4.2,1.2,6.8
	c-1.3,2.2-2.7,4.4-4.2,6.5c-2.9,3.9,0.6,5,2.7,6.8c2.5,2.1,4.2,1.9,6.1-1.1c4.4-7,9.1-13.8,13.6-20.7c0.5-0.8,1-1.5,1.7-2.2
	c1.8-1.8,3.9-3.1,6.4-1.5c2.7,1.8,2.5,4.5,0.9,6.8c-4.6,7.1-9.3,14.2-14.2,21c-2.6,3.6-2.6,5.9,1.3,8.5c3,2,4.9,1.8,6.6-1.3
	c1.1-1.9,2.5-3.7,3.8-5.5c1.5-2.2,3.6-3.5,6.1-2c2.7,1.6,2.7,4.3,1.3,6.8c-1.2,2.2-2.7,4.4-4.2,6.5c-1.7,2.3-1.4,4.2,1.2,5.4
	c2.4,1.1,5,4.1,7.6,0.3c6.4-9.4,12.7-18.9,19-28.3c2.4-3.7,4.7-7.5,7.3-11c2.6-3.6,1.6-5.7-1.8-8c-19.9-13.3-39.6-26.8-59.4-40.3
	c-7-4.8-14.1-9.4-21-14.3c-3-2.2-4.7-1.6-6.6,1.3c-8.8,13.2-17.6,26.3-26.7,39.3c-2.1,3-1.9,4.7,1.3,6.6c2.9,1.7,5.3,3.7,7.6-0.6
	c1.1-2.1,2.5-4.1,3.9-6c1.8-2.4,4.1-3.2,6.7-1.4c2.4,1.7,2.3,4,0.9,6.3c-1.4,2.2-2.9,4.3-4.3,6.4c-0.9,1.3-2.4,2.8-0.8,4.4
	c1.8,1.8,3.8,3.5,6.8,3.8C174.9,138.9,175.9,138,176.6,137z"/>
<path class="st2" d="M471.7,238.5c-93.3-63.3-186.6-126.8-279.9-190.2c-0.6-0.4-1.2-0.8-1.8-1.2c-6.1-3.7-12.1-3-15.2,1.7
	c-3.1,4.7-1.2,11.2,4.6,15.2c23.3,15.8,46.5,31.7,69.8,47.5c70.5,47.9,140.9,95.8,211.4,143.6c6.7,4.6,10.6,4.6,14.9,0.5
	c2.3-2.1,3.6-4.7,2.3-8.5C477.3,243.7,475.2,240.9,471.7,238.5z"/>
<path class="st3" d="M171.8,38.9c6-4.5,12.6-4.6,19.3-1.5c5.1,2.3,9.3,5.8,13.9,8.9c18.2,12.4,36.4,24.7,54.6,37.1
	c12.9,8.8,25.8,17.6,38.7,26.3c18.7,12.7,37.4,25.3,56.1,38c12.4,8.5,24.7,17.1,37.2,25.6c13.8,9.4,27.8,18.6,41.6,27.9
	c14.4,9.8,28.7,19.8,43.2,29.4c10.5,6.9,14.4,19,8.5,28.4c-6.5,10.3-18,12.1-29.3,4.4c-56.9-38.6-113.8-77.3-170.7-116
	c-6.4-4.3-6.3-4.4-10.7,2.2c-9.6,14.2-19.2,28.3-28.8,42.5c-2.2,3.3-4.6,5.3-8.6,2.7c-4-2.6-8-5.3-11.9-7.9
	c-17.8-12.1-35.5-24.2-53.3-36.3c-9.4-6.4-18.9-12.7-28.2-19.2c-5.3-3.7-5.5-6.8-1.6-12c2.9-4,5.6-8.2,8.4-12.3
	c6.8-10,13.7-20,20.5-30c2.1-3.1,2.5-5.7-0.7-8.6c-3.1-2.7-4.9-6.4-5.3-9.1C162.7,49.9,165.6,43.6,171.8,38.9z M471.7,238.7
	C378.4,175.4,285.1,112,191.8,48.6c-0.6-0.4-1.2-0.8-1.8-1.2c-6.1-3.7-12.1-3-15.2,1.7c-3.1,4.7-1.2,11.2,4.6,15.2
	c23.3,15.8,46.5,31.7,69.8,47.5c70.5,47.9,140.9,95.8,211.4,143.6c6.7,4.6,10.6,4.6,14.9,0.5c2.3-2.1,3.6-4.7,2.3-8.5
	C477.3,244,475.2,241.1,471.7,238.7z M176.6,137c4.7-6.8,9.3-13.6,14-20.5c1.9-2.7,4-5.3,7.6-3.4c3.9,2,2.7,5.2,0.8,8
	c-4.6,6.9-9.2,13.7-14,20.4c-2.2,3.1-2.5,5.4,1.2,7.7c3.5,2.2,5.8,1.4,7.6-2.1c0.9-1.6,1.8-3.2,2.9-4.7c1.7-2.3,4-3.5,6.7-1.8
	c2.6,1.7,2.7,4.2,1.2,6.8c-1.3,2.2-2.7,4.4-4.2,6.5c-2.9,3.9,0.6,5,2.7,6.8c2.5,2.1,4.2,1.9,6.1-1.1c4.4-7,9.1-13.8,13.6-20.7
	c0.5-0.8,1-1.5,1.7-2.2c1.8-1.8,3.9-3.1,6.4-1.5c2.7,1.8,2.5,4.5,0.9,6.8c-4.6,7.1-9.3,14.2-14.2,21c-2.6,3.6-2.6,5.9,1.3,8.5
	c3,2,4.9,1.8,6.6-1.3c1.1-1.9,2.5-3.7,3.8-5.5c1.5-2.2,3.6-3.5,6.1-2c2.7,1.6,2.7,4.3,1.3,6.8c-1.2,2.2-2.7,4.4-4.2,6.5
	c-1.7,2.3-1.4,4.2,1.2,5.4c2.4,1.1,5,4.1,7.6,0.3c6.4-9.4,12.7-18.9,19-28.3c2.4-3.7,4.7-7.5,7.3-11c2.6-3.6,1.6-5.7-1.8-8
	c-19.9-13.3-39.6-26.8-59.4-40.3c-7-4.8-14.1-9.4-21-14.3c-3-2.2-4.7-1.6-6.6,1.3c-8.8,13.2-17.6,26.3-26.7,39.3
	c-2.1,3-1.9,4.7,1.3,6.6c2.9,1.7,5.3,3.7,7.6-0.6c1.1-2.1,2.5-4.1,3.9-6c1.8-2.4,4.1-3.2,6.7-1.4c2.4,1.7,2.3,4,0.9,6.3
	c-1.4,2.2-2.9,4.3-4.3,6.4c-0.9,1.3-2.4,2.8-0.8,4.4c1.8,1.8,3.8,3.5,6.8,3.8C174.9,138.9,175.9,138,176.6,137z"/>
<path class="st1" d="M233.9,240.5c-0.5,3.2-2.7,3.9-5.4,4.2c-7.1,0.7-14.2,1.7-21.1,3.8c-10.8,3.4-16.9,10.9-19.1,21.7
	c-1.3,6.7-2.3,13.5-2.2,20.3c0,2.9,0,6.2-3.8,6.5c-4.2,0.3-4.3-3.1-4.8-6.2c-1-6.1-0.6-12.3-1.9-18.4c-3.4-15.6-10.9-23.1-26.6-25.7
	c-4.9-0.8-9.8-2.1-14.8-2.1c-2.6,0-4.6-1.3-4.8-4.1c-0.2-3,2-4,4.5-4.4c3.8-0.6,7.6-1,11.4-1.4c22.8-2.4,29.9-15.5,31.4-34
	c0.3-4.1,0.7-8.3,1-12.4c0.2-2.6,1.2-4.7,4.1-4.7c2.9,0,4.2,2.1,4.2,4.7c0.1,6.5,1.1,12.9,1.9,19.4c1.8,14.2,10.1,23.2,24.2,26
	c5.1,1,10.1,1.9,15.3,2C230.6,235.7,233.3,236.8,233.9,240.5z M159.2,240.6c10.8,4.2,18.1,10.7,22.4,21.7
	c4.6-10.6,11.5-17.6,22.6-21.7c-11-4.6-18-11.4-22.7-22C177.3,229.7,169.7,236,159.2,240.6z"/>
<path class="st2" d="M159.1,240.5c10.8,4.2,18.1,10.7,22.4,21.7c4.6-10.6,11.5-17.6,22.6-21.7c-11-4.6-18-11.4-22.7-22
	C177.2,229.7,169.6,235.9,159.1,240.5z"/>
</svg>
