<?xml version="1.0" encoding="utf-8"?>
<!-- Generator: Adobe Illustrator 22.0.1, SVG Export Plug-In . SVG Version: 6.00 Build 0)  -->
<svg version="1.1" id="Слой_1" xmlns="http://www.w3.org/2000/svg" xmlns:xlink="http://www.w3.org/1999/xlink" x="0px" y="0px"
	 viewBox="0 0 136.9 183.4" style="enable-background:new 0 0 136.9 183.4;" xml:space="preserve">
<style type="text/css">
	<!-- .st0{fill:#FFFFFF;} -->
	.st1{fill:none;stroke:#000000;stroke-width:8;stroke-miterlimit:10;}
</style>
<path class="st0" d="M128.2,74.4c6-10,8.6-21,8.6-34.4c0.1-2.3-0.2-6.4-0.9-10.4c-0.9-4.7-2.2-9.3-4.8-13.5
	c-1.7-2.7-3.6-5.2-6.1-7.3c-6-5-12.9-7.9-20.6-8.6c-4.6-0.5-9.2,0.2-13.6,1.5c-3,0.9-5.8,2.4-8.6,3.7c-4,1.9-8.2,3-12.6,3.2
	c-6.1,0.3-11.7-1.1-17.1-3.9c-9.9-5.3-20-6-30.5-2C15.8,5.1,10.7,8.9,6.8,14.5C2.1,21.3,0.4,29,0.1,37.2c-0.2,5,0.1,10,0.8,15
	c0.9,6.3,2.9,12.2,5.3,18C6.9,71.9,8,73.5,9,75c2.1,3.1,3.9,6.3,5.1,10c1.3,4.3,1.8,8.7,1.9,13.2c0,4.3,0.1,8.7,0.3,13
	c0.4,8,1,16.1,2.1,24c1,7.7,1.9,15.3,4,22.8c1.6,5.9,4,11.5,7.7,16.5c1.8,2.4,3.7,4.6,6,6.5c1.9,1.6,4.1,2.7,6.7,2.3
	c4.1-0.6,6.6-3.1,7.8-7c0.6-2,0.9-4,1.2-6c1.7-11.1,3.1-22.3,5.2-33.3c0.9-4.6,1.8-9.2,3.5-13.5c1-2.6,2.1-5.1,3.7-7.4
	c1-1.4,1.9-2.7,3-4c0.9-1,1.4-0.9,2.4-0.1c1.8,1.4,3.2,3.1,4.2,5.1c1.7,3.4,2.9,6.9,3.6,10.6c2.9,15.4,5.7,30.8,8.4,46.2
	c0.4,2.3,1,4.5,2.6,6.3c3.4,3.9,9.2,4.1,13,0.4c3.1-3.1,5.2-6.9,7.5-10.6c3.6-5.8,5.7-12.3,7.4-19c3.1-11.9,4.4-24.1,4.7-36.3
	c0.2-6,0.1-12.1,0-18.2c0-4.8,0.9-9.5,2.7-14C124.9,79.7,126.6,77.1,128.2,74.4z M113.1,93c-0.5,6,0,12.1-0.2,18.1
	c-0.3,10.7-1.2,21.3-3.4,31.8c-1.4,6.5-3,13-5.4,19.2c-1.8,4.6-4.5,8.6-8.4,11.6c-0.3,0.2-0.5,0.5-0.8,0.4c-0.4-0.1-0.2-0.6-0.3-0.9
	c-1.3-11.6-2.8-23.1-5.7-34.5c-1.8-7.1-3.6-14.1-5.9-21c-1.9-5.5-4.9-10.4-9.5-14c-3.6-2.9-8.5-2.4-11.7,0.9c-2.6,2.7-4.3,6-6.2,9.3
	c-3.3,5.6-4.7,11.9-6,18.2c-1.5,7-2.8,14-3.9,21.1c-0.7,4.5-1.1,9-2.1,13.4c-0.5,2.2-1.2,4.4-2,6.6c-0.3,0.7-0.5,0.9-1.1,0.2
	c-5.1-5.8-8.5-12.4-10.8-19.7c-2-6.5-2.9-13.3-3.6-20.1c-0.7-7.8-1.2-15.5-1.5-23.3c-0.3-5.7-0.5-11.4-0.6-17
	c-0.2-5.3-1.6-10.2-3.7-15c-0.1-0.1-0.1-0.2-0.2-0.4h23.1h7.5h0.5c0-9.4,7.7-17.1,17.1-17.1c9.4,0,17.1,7.7,17.1,17.1h0.6h7.4h23.2
	C114.8,82.7,113.5,87.7,113.1,93z M91.9,69.2c-3.6-9.5-12.8-16.3-23.5-16.3c-10.7,0-19.9,6.8-23.5,16.3H15.2c-0.5-1-1.1-1.9-1.5-2.9
	c-3.2-6.7-5-13.7-5.3-21.2c-0.3-6,0.2-11.9,1.8-17.6c2.7-9.5,8.8-15.8,18.6-17.9c1.7-0.4,3.5-0.5,5.1-0.5c4.4-0.1,8.4,1,12.4,2.4
	c3.4,1.2,6.6,3.1,10.1,4.2c8.1,2.6,16.1,2.3,24.2-0.1c3.6-1.1,7-2.9,10.6-4.1c6.5-2.2,13-3,19.7-0.9c5.2,1.7,9.2,4.9,12.1,9.3
	c3,4.4,4.2,9.5,4.8,14.7c0.6,6,0.5,12-0.6,18c-1.1,5.9-3.1,11.3-5.8,16.6H91.9z"/>
</svg>
