<?xml version="1.0" encoding="utf-8"?>
<!-- Generator: Adobe Illustrator 22.0.1, SVG Export Plug-In . SVG Version: 6.00 Build 0)  -->
<svg version="1.1" id="Слой_1" xmlns="http://www.w3.org/2000/svg" xmlns:xlink="http://www.w3.org/1999/xlink" x="0px" y="0px"
	 viewBox="0 0 155.1 183.4" style="enable-background:new 0 0 155.1 183.4;" xml:space="preserve">
<style type="text/css">
	.st0{fill:#FFFFFF;}
	.st1{fill:none;stroke:#000000;stroke-width:8;stroke-miterlimit:10;}
</style>
<path class="st0" d="M30,43.7c-0.5-5.1,0.3-9.8,3.3-14c1-1.5,1.9-3.1,2.5-4.9c0.8-2.7-0.2-4.2-3-4.6c-0.2,0-0.4,0-0.6,0
	c-1.5,0-3,0.5-4,1.4c-2.3,1.8-3.8,4.2-4.7,7c-2.5,7.7-2.8,15.6-1,23.5c1,4.4,2.3,8.7,4.8,12.6c1.1,1.7,2.4,3.3,4.4,4
	c2.9,1,5.3-0.8,5.2-3.7c-0.1-1.9-0.9-3.5-1.7-5.1C32.6,54.7,30.6,49.4,30,43.7z"/>
<path class="st0" d="M136.3,32.1c-0.1-0.9-0.2-1.7-0.4-2.6c-0.9-4.7-2.2-9.3-4.8-13.5c-1.7-2.7-3.6-5.2-6.1-7.3
	c-6-5-12.9-7.9-20.6-8.6c-4.6-0.5-9.2,0.2-13.6,1.5c-3,0.9-5.8,2.4-8.6,3.7c-4,1.9-8.2,3-12.6,3.2c-6.1,0.3-11.7-1.1-17.1-3.9
	c-9.9-5.3-20-6-30.5-2C15.8,5.1,10.7,8.9,6.8,14.5C2.1,21.3,0.4,29,0.1,37.2c-0.2,5,0.1,10,0.8,15c0.9,6.3,2.9,12.2,5.3,18
	C6.9,71.9,8,73.5,9,75c2.1,3.1,3.9,6.3,5.1,10c1.3,4.3,1.8,8.7,1.9,13.2c0,4.3,0.1,8.7,0.3,13c0.4,8,1,16.1,2.1,24
	c1,7.7,1.9,15.3,4,22.8c1.6,5.9,4,11.5,7.7,16.5c1.8,2.4,3.7,4.6,6,6.5c1.9,1.6,4.1,2.7,6.7,2.3c4.1-0.6,6.6-3.1,7.8-7
	c0.6-2,0.9-4,1.2-6c1.7-11.1,3.1-22.3,5.2-33.3c0.9-4.6,1.8-9.2,3.5-13.5c1-2.6,2.1-5.1,3.7-7.4c1-1.4,1.9-2.7,3-4
	c0.9-1,1.4-0.9,2.4-0.1c1.8,1.4,3.2,3.1,4.2,5.1c1.7,3.4,2.9,6.9,3.6,10.6c2.9,15.4,5.7,30.8,8.4,46.2c0.4,2.3,1,4.5,2.6,6.3
	c3.4,3.9,9.2,4.1,13,0.4c3.1-3.1,5.2-6.9,7.5-10.6c3.6-5.8,5.7-12.3,7.4-19c3.1-11.9,4.4-24.1,4.7-36.3c0.1-4.2,0.1-8.4,0.1-12.7
	c1.9-0.5,3.7-1.1,5.5-1.8c0.1-0.1,0.4-0.2,0.5-0.2c0.1,0.1,0.2,0.4,0.3,0.5l2.4,4.1c1.3,2.3,2.6,4.6,4,6.9l1.5,2.6
	c1.8,3.1,3.6,6.2,5.4,9.3c0.6,1,1.2,2,1.8,3.1l4.5,7.7c0.4,0.7,1,1.2,1.7,1.6c0.3,0.1,0.5,0.2,0.8,0.3c1.6,0.4,3.4,0,4.4-1.2
	c1.5-1.7,1.7-3.6,0.6-5.5c-1.5-2.5-2.9-5.1-4.4-7.6l-3.2-5.4c-2.5-4.3-5-8.6-7.5-13c-1.5-2.5-2.9-5-4.4-7.7c0-0.1-0.1-0.1-0.1-0.1
	c0,0,0,0,0.1-0.1c1.7-1.2,3.4-2.7,5-4.4c3.4-3.4,6.1-7.5,8.1-12c1.1-2.6,2-5.5,2.6-8.9c0.6-3.1,0.8-6.4,0.5-10.1
	c-0.1-2.1-0.5-4.2-1.1-6.5c-0.9-3.7-2.3-7-3.9-10c-2-3.6-4.6-6.8-7.7-9.7C137.8,33.3,137.1,32.7,136.3,32.1z M112.9,111.1
	c-0.3,10.7-1.2,21.3-3.4,31.8c-1.4,6.5-3,13-5.4,19.2c-1.8,4.6-4.5,8.6-8.4,11.6c-0.3,0.2-0.5,0.5-0.8,0.4c-0.4-0.1-0.2-0.6-0.3-0.9
	c-1.3-11.6-2.8-23.1-5.7-34.5c-1.8-7.1-3.6-14.1-5.9-21c-1.9-5.5-4.9-10.4-9.5-14c-3.6-2.9-8.5-2.4-11.7,0.9c-2.6,2.7-4.3,6-6.2,9.3
	c-3.3,5.6-4.7,11.9-6,18.2c-1.5,7-2.8,14-3.9,21.1c-0.7,4.5-1.1,9-2.1,13.4c-0.5,2.2-1.2,4.4-2,6.6c-0.3,0.7-0.5,0.9-1.1,0.2
	c-5.1-5.8-8.5-12.4-10.8-19.7c-2-6.5-2.9-13.3-3.6-20.1c-0.7-7.8-1.2-15.5-1.5-23.3c-0.3-5.7-0.5-11.4-0.6-17
	c-0.2-5.3-1.6-10.2-3.7-15c-1.9-4.2-4.7-7.9-6.7-12.1c-3.2-6.7-5-13.7-5.3-21.2c-0.3-6,0.2-11.9,1.8-17.6
	c2.7-9.5,8.8-15.8,18.6-17.9c1.7-0.4,3.5-0.5,5.1-0.5c4.4-0.1,8.4,1,12.4,2.4c3.4,1.2,6.6,3.1,10.1,4.2c8.1,2.6,16.1,2.3,24.2-0.1
	c3.6-1.1,7-2.9,10.6-4.1c6.5-2.2,13-3,19.7-0.9c5.2,1.7,9.2,4.9,12.1,9.3c1.3,1.9,2.3,4,3,6.1c-2.7-1.1-5.3-1.8-8-2.3
	c-3.2-0.5-6-0.7-8.5-0.6c-2.8,0.1-5.5,0.6-8.2,1.2c-4.1,1-8,2.8-11.8,5.2c-2.5,1.6-5,3.6-7.2,5.9c-2,2-3.7,4.2-5.1,6.5
	c-2.4,3.8-3.9,7.4-4.6,10.9c-0.8,2.8-1.3,5.7-1.4,9.3c-0.1,4,0.4,8,1.5,11.8c0.9,3.2,2.2,6.2,3.7,9c2,3.4,4.4,6.5,7.5,9.5
	c3.7,3.6,8.3,6.4,13.5,8.3c4.9,1.8,10.1,2.6,15.5,2.4C112.9,105.9,112.9,108.5,112.9,111.1z M141.2,71.1L141.2,71.1
	c-4.1,16.1-20.6,26.1-36.8,22.4c-8.3-1.9-15.3-6.9-19.7-14C80.4,72.4,79,64,81.1,55.8c4.1-16.4,20.2-26.5,36.7-22.9
	c0.4,0.1,0.9,0.2,1.3,0.3c7.8,2,14.4,6.9,18.6,13.8C142.1,54.4,143.4,62.9,141.2,71.1z"/>
</svg>
