<?xml version="1.0" encoding="utf-8"?>
<!-- Generator: Adobe Illustrator 22.0.1, SVG Export Plug-In . SVG Version: 6.00 Build 0)  -->
<svg version="1.1" id="Слой_1" xmlns="http://www.w3.org/2000/svg" xmlns:xlink="http://www.w3.org/1999/xlink" x="0px" y="0px"
	 viewBox="0 0 500 500" style="enable-background:new 0 0 500 500;" xml:space="preserve">
<style type="text/css">
	.st0{fill:#E8E8E8;}
</style>
<path class="st0" d="M291.4,331.8c1.3-6.3,2.8-12.7,3.9-19c2.5-15.9-5.1-28.5-18.2-30.8c-13.7-2.3-26.4,6.7-29.6,21.7
	c-4.2,19.3-6.5,39.1-15.1,57.2c-12,25.3-40.8,31.7-57.7,12.5c-9.6-10.8-16.4-23.3-19.2-37.9c-2.9-14.9-2.6-29.8-1.5-44.8
	c1.8-24.7,7.2-48.4,17.1-71.2c6.8-15.6,8.9-31.4,2.1-48.5c-7.2-18.3-14-37-14.3-57.2c-0.3-21.8,2.7-42.8,12.4-62.5
	C190.4,12,230.8-4.9,272.5,8.6c15.2,4.9,29.2,11.9,40.7,22.8c8.8,8.3,17.6,9.7,28.9,6c24.7-8.1,49.5-8.7,73.9,2.2
	c26.7,11.9,41.9,32.6,46.8,61.3c7,40.7-9,74-33.2,104.7c-5.9,7.5-12.2,14.6-19.3,21c-10.2,9.3-10.4,22.9-11.1,35.2
	c-1.4,23.3-5.1,46-10.6,68.6c-5.8,23.6-17,44.5-33.8,62.1c-6.9,7.2-15.2,12.6-25.2,14.7c-22.4,4.8-40.4-8.1-42.4-30.9
	C285.8,361.3,288.1,346.5,291.4,331.8z M323,334c-1.8,10.4-4.8,20.6-4.5,31.3c0.1,3.4-0.9,7.3,2.9,9.1c3.8,1.7,6.2-1.8,8.9-3.7
	c6.1-4.5,11.2-10.2,14.5-17c13-26.3,21.3-53.8,21.3-83.4c0-28.3,7-53.2,28.5-73.8c20.2-19.4,34.6-42.7,37.8-71.8
	c3-27.2-11.8-52-37.7-58.9c-12.7-3.4-25.8-3.9-38.3,0.9c-25.3,9.8-47.4,5.4-66.9-13.2c-6.8-6.4-15.3-10.3-23.8-13.8
	C238.1,28.3,207,41.6,198,68.9c-9,27-10,54.1,0.9,81c3.1,7.6,5.8,15.3,8.2,23.1c3.9,12.7,4.1,25.2-0.1,38.1
	c-8.6,26.2-18.6,52-21.4,79.7c-1.9,18.5-1.6,36.8,6.8,54c1.3,2.7,2.8,6.1,6.3,6c4.1-0.1,5.6-3.8,6.4-7c2.3-8.5,5.6-16.7,6.5-25.7
	c1.2-13.6,4.7-26.8,11.2-39.1c12.4-23.1,37.8-34.7,63.3-27.7c20.5,5.6,42.5,26,41.5,53.2C327.3,314.8,324.7,324.3,323,334z"/>
<path class="st0" d="M487.2,489.8h-467v-237h5.3c3.8-0.4,49.1-5.2,71.5-15.6c11.1-5.1,18-2.2,21.8,1.2c12.1,10.7,8.4,39.6,0.9,63
	c-10.7,33.5-4.6,112.2,32.5,136.1c19.4,12.5,39,8,54.7,4.5c12-2.7,21.3-12.2,23.7-24.1c4.1-19.1,14.7-25.6,23.3-25.4
	c12.6,0.5,16.7,8.5,20.6,25.2c2.2,9.2,7.6,21,20.9,24.3c10.9,2.7,27.2,4.7,43.1-0.9c30.9-10.9,48-41.9,56.9-65.9
	c11-29.7,13.1-58.7,11-69.7c-3.1-16.7-2-47.2,14-58c5.7-3.8,16-7.3,29.7,2.5c20,14.4,37.1,8.3,37.1,8.3V489.8z M31.2,478.8h445
	V269.9c-7.7,1.5-18.2-2-31.9-10.7c-7.4-4.7-13.4-5.6-17.7-2.7c-9.4,6.3-12.4,29.8-9.3,46.9c2.6,14.3-0.6,45.6-11.5,75.5
	c-9.7,26.3-28.6,60.2-63.5,72.5c-18.5,6.6-37.1,4.3-49.4,1.3c-14.6-3.7-24.9-15.2-28.9-32.5c-3.9-16.5-6.1-16.6-10.2-16.8
	c0,0-0.1,0-0.1,0c-4.2,0-9.6,5.1-12.1,16.7c-3.3,16.1-15.9,28.9-32.1,32.6c-15.9,3.6-39.9,9-63.1-5.9c-19-12.2-32.8-37.4-39-71.1
	c-5.1-27.6-4.3-58,2-77.6c8.7-27,7.6-46.7,2.3-51.4c-2-1.7-5.3-1.5-9.9,0.6c-20.6,9.6-57.2,14.5-70.4,16V478.8z"/>
</svg>
