<?xml version="1.0" encoding="utf-8"?>
<!-- Generator: Adobe Illustrator 22.0.1, SVG Export Plug-In . SVG Version: 6.00 Build 0)  -->
<svg version="1.1" id="Слой_1" xmlns="http://www.w3.org/2000/svg" xmlns:xlink="http://www.w3.org/1999/xlink" x="0px" y="0px"
	 viewBox="0 0 500 500" style="enable-background:new 0 0 500 500;" xml:space="preserve">
<style type="text/css">
	.st0{fill:#606060;}
	.st1{fill:#515151;}
	.st2{fill:#FFFFFF;}
</style>
<path class="st1" d="M240,425.2c0-6.5,0.2-13,0-19.4c-0.7-16.1-10.7-26.9-24-26.5c-13.9,0.5-24.5,11.9-24.7,27.2
	c-0.2,19.7,1.5,39.6-3.3,59c-6.7,27.1-33.6,39.2-54,23.9c-11.6-8.7-20.8-19.5-26.4-33.2c-5.8-14-8.5-28.7-10.5-43.6
	c-3.2-24.5-2.7-48.8,2.5-73.2c3.5-16.7,2.4-32.6-7.7-47.9C81.2,275,70.8,258,66.5,238.2c-4.7-21.3-5.9-42.4-0.4-63.8
	c10.9-42.3,47.1-67,90.6-62.1c15.9,1.8,31,5.8,44.4,14.1c10.3,6.4,19.2,5.9,29.5,0.1c22.6-12.9,46.8-18.5,72.8-12.7
	c28.6,6.3,47.6,23.5,58.2,50.7c15,38.4,6.1,74.3-11.5,109.3c-4.3,8.5-9,16.7-14.7,24.5c-8.1,11.2-5.6,24.5-3.8,36.7
	c3.3,23.1,4.3,46.1,3.4,69.3c-0.9,24.3-7.8,47-20.6,67.7c-5.3,8.5-12.3,15.4-21.8,19.5c-21,9.2-41.2,0.2-47.7-21.7
	C240.4,455.3,239.8,440.3,240,425.2z M271.4,421c0.3,10.5-0.5,21.2,1.9,31.6c0.8,3.3,0.6,7.4,4.7,8.3c4.1,0.9,5.8-3,7.9-5.4
	c5.1-5.6,8.9-12.3,10.8-19.5c7.4-28.3,10.1-57,4.1-86c-5.7-27.7-3.9-53.5,13.1-78c15.9-23,25.3-48.8,22.6-78
	c-2.5-27.3-22-48.5-48.7-50.2c-13.1-0.8-26.1,1.4-37.3,8.6c-22.8,14.6-45.3,14.8-68.2,0.5c-7.9-5-17-7-26.1-8.7
	c-29.4-5.6-57.2,13.7-60.6,42.2c-3.4,28.3,1.1,55,17.2,79.2c4.5,6.8,8.8,13.8,12.7,21c6.4,11.6,9.1,23.9,7.5,37.4
	c-3.1,27.4-7.7,54.7-5,82.4c1.8,18.5,5.8,36.4,17.5,51.6c1.8,2.4,4,5.4,7.4,4.6c4-0.9,4.7-4.8,4.9-8.1c0.5-8.8,2.2-17.5,1.2-26.5
	c-1.5-13.6-0.8-27.2,3.1-40.5c7.5-25.1,30.1-41.6,56.5-39.8c21.2,1.4,46.8,16.9,51.4,43.8C271.8,401.3,271.2,411.2,271.4,421z"/>
<g>
	<g>
		<path class="st1" d="M484,106.8c-0.4,3-0.7,6.1-1.3,9.1c-2.9,14.5-9.4,27.4-18.8,38.7c-13.2,15.9-29.9,26.8-49.1,34.1
			c-9.8,3.8-20,6.3-30.4,7.8c-9.4,1.3-18.8,1.6-28.3,1.2c-14.7-0.7-29.1-3.5-42.9-8.5c-0.8-0.3-1.5,0-2.2,0.2
			c-8.9,3.3-17.8,6.6-26.7,9.8c-9.7,3.5-19.5,7.1-29.3,10.3c-3.8,1.3-6.4-0.3-7.7-3.7c-0.6-1.4-0.5-2.6,0.2-4
			c5.2-10.5,10.7-20.8,16.4-31.1c1.6-2.8,3.2-5.6,4.8-8.4c0.4-0.7,0.3-1.1-0.2-1.7c-6.8-7.4-12.6-15.5-17.1-24.5
			c-4.4-9.1-7.2-18.6-8-28.7c-1.3-17.1,2.6-33,11.1-47.9c5.1-9,12.2-16.4,19.6-23.5c9.2-8.8,20.1-15.2,31.7-20.4
			c11.6-5.2,23.8-8.6,36.3-10.6c3.2-0.5,6.3-0.9,9.5-0.8c0.4,0,0.9-0.1,1.3-0.2c5.7,0,11.3,0,17,0c0.4,0.1,0.9,0.2,1.3,0.2
			c10.6,0,20.9,1.5,31.1,4.5c12.8,3.6,24.9,8.6,36.1,15.8c9.7,6.3,18.2,13.9,25.7,22.7c9.5,11.2,15.9,23.9,18.7,38.3
			c0.6,3.2,1,6.5,1.4,9.7C484,99.1,484,103,484,106.8z M267.6,191.2c0.1,0.1,0.2,0.1,0.2,0.2c0.5-0.2,1.1-0.3,1.6-0.5
			c13-4.5,25.9-9.3,38.8-14c2.9-1.1,5.5-1.1,8.4,0c12.8,4.7,26,7.7,39.6,8c8.5,0.2,17,0.3,25.5-0.9c13.2-1.9,25.9-5.4,37.9-11.2
			c7.1-3.5,14-7.4,20.1-12.4c4.6-3.8,8.9-8.1,12.9-12.6c12.8-14.4,19.2-31.2,18.4-50.5c-0.4-9.1-2.7-17.6-6.7-25.7
			c-6-12.5-14.9-22.7-25.9-31c-20.5-15.5-43.9-22.9-69.5-23.7c-7.8-0.2-15.6-0.2-23.3,0.8c-8.5,1.1-16.8,3.1-24.9,5.8
			c-17.7,6.1-33.5,15.4-46,29.5c-13,14.7-19.8,31.8-19,51.6c0.3,7,1.7,13.7,4.2,20.2c3.6,9.5,9.2,17.8,16,25.2c2,2.1,4,4.2,5.8,6.5
			c1.1,1.5,1.5,3.2,0.8,5c-0.5,1.2-0.9,2.4-1.5,3.5c-3.2,6.5-6.8,12.8-10.2,19.2C269.9,186.5,268.8,188.9,267.6,191.2z"/>
	</g>
</g>
<path class="st2" d="M267.6,191.2c0.1,0.1,0.2,0.1,0.2,0.2c0.5-0.2,1.1-0.3,1.6-0.5c13-4.5,25.9-9.3,38.8-14c2.9-1.1,5.5-1.1,8.4,0
	c12.8,4.7,26,7.7,39.6,8c8.5,0.2,17,0.3,25.5-0.9c13.2-1.9,25.9-5.4,37.9-11.2c7.1-3.5,14-7.4,20.1-12.4c4.6-3.8,8.9-8.1,12.9-12.6
	c12.8-14.4,19.2-31.2,18.4-50.5c-0.4-9.1-2.7-17.6-6.7-25.7c-6-12.5-14.9-22.7-25.9-31c-20.5-15.5-43.9-22.9-69.5-23.7
	c-7.8-0.2-15.6-0.2-23.3,0.8c-8.5,1.1-16.8,3.1-24.9,5.8c-17.7,6.1-33.5,15.4-46,29.5c-13,14.7-19.8,31.8-19,51.6
	c0.3,7,1.7,13.7,4.2,20.2c3.6,9.5,9.2,17.8,16,25.2c2,2.1,4,4.2,5.8,6.5c1.1,1.5,1.5,3.2,0.8,5c-0.5,1.2-0.9,2.4-1.5,3.5
	c-3.2,6.5-6.8,12.8-10.2,19.2C269.9,186.5,268.8,188.9,267.6,191.2z"/>
<rect x="296.6" y="68.9" class="st1" width="134.9" height="13.3"/>
<rect x="296.6" y="92.1" class="st1" width="134.9" height="13.3"/>
<rect x="296.6" y="115.2" class="st1" width="88" height="13.3"/>
</svg>
