<?xml version="1.0" encoding="utf-8"?>
<!-- Generator: Adobe Illustrator 22.0.1, SVG Export Plug-In . SVG Version: 6.00 Build 0)  -->
<svg version="1.1" id="Слой_1" xmlns="http://www.w3.org/2000/svg" xmlns:xlink="http://www.w3.org/1999/xlink" x="0px" y="0px"
	 viewBox="0 0 126.7 158.9" style="enable-background:new 0 0 126.7 158.9;" xml:space="preserve">
<style type="text/css">
	.st0{fill:#D47226;}
	.st1{fill:#E8E8E8;}
</style>
<g>
	<path class="st0" d="M73.3,129.6c0-2.7,0.1-5.4,0-8c-0.3-6.7-4.4-11.1-9.9-10.9c-5.7,0.2-10.1,4.9-10.2,11.2
		c-0.1,8.1,0.6,16.4-1.4,24.4c-2.8,11.2-13.9,16.2-22.3,9.9c-4.8-3.6-8.6-8.1-10.9-13.7c-2.4-5.8-3.5-11.9-4.3-18
		c-1.3-10.1-1.1-20.2,1-30.2c1.4-6.9,1-13.5-3.2-19.8c-4.4-6.8-8.7-13.8-10.5-22c-1.9-9-2.4-17.7-0.1-26.5C6,8.5,21-1.7,38.9,0.3
		C45.5,1,51.7,2.7,57.2,6.1c4.3,2.6,7.9,2.4,12.2,0c9.3-5.3,19.3-7.6,30.1-5.2c11.8,2.6,19.7,9.7,24,20.9
		c6.2,15.9,2.5,30.7-4.8,45.2c-1.8,3.5-3.7,6.9-6.1,10.1c-3.3,4.6-2.3,10.1-1.6,15.2c1.4,9.5,1.8,19,1.4,28.6
		c-0.4,10-3.2,19.4-8.5,28c-2.2,3.5-5.1,6.4-9,8.1c-8.7,3.8-17,0.1-19.7-9C73.5,142,73.3,135.8,73.3,129.6z M86.3,127.9
		c0.1,4.3-0.2,8.8,0.8,13.1c0.3,1.4,0.2,3.1,1.9,3.4c1.7,0.4,2.4-1.2,3.3-2.2c2.1-2.3,3.7-5.1,4.5-8.1c3.1-11.7,4.2-23.5,1.7-35.5
		c-2.4-11.4-1.6-22.1,5.4-32.2c6.6-9.5,10.5-20.2,9.3-32.2c-1-11.3-9.1-20-20.1-20.7c-5.4-0.3-10.8,0.6-15.4,3.6
		c-9.4,6-18.7,6.1-28.2,0.2c-3.3-2.1-7-2.9-10.8-3.6c-12.1-2.3-23.6,5.7-25,17.4s0.5,22.7,7.1,32.7c1.9,2.8,3.6,5.7,5.2,8.7
		c2.6,4.8,3.8,9.9,3.1,15.5c-1.3,11.3-3.2,22.6-2.1,34c0.7,7.6,2.4,15,7.2,21.3c0.7,1,1.7,2.2,3.1,1.9c1.7-0.4,1.9-2,2-3.3
		c0.2-3.6,0.9-7.2,0.5-10.9c-0.6-5.6-0.3-11.2,1.3-16.7c3.1-10.4,12.4-17.2,23.3-16.4c8.8,0.6,19.3,7,21.2,18.1
		C86.5,119.7,86.2,123.8,86.3,127.9z"/>
	<path class="st0" d="M82.5,68.5c-8.8,4.8-24.3,9.1-38.4,1.7c-2-1-2.6-3.5-1.2-5.1l0,0c1.2-1.4,3.3-1.9,5-0.9
		c12.3,6.4,25.1,1.3,30.7-1.7c1.7-0.9,3.8-0.5,5,0.9l0,0C85,65.2,84.4,67.5,82.5,68.5z"/>
	<circle class="st0" cx="48.5" cy="44.2" r="6.6"/>
	<circle class="st0" cx="78.2" cy="44.2" r="6.6"/>
</g>
</svg>
