<?xml version="1.0" encoding="utf-8"?>
<!-- Generator: Adobe Illustrator 22.0.1, SVG Export Plug-In . SVG Version: 6.00 Build 0)  -->
<svg version="1.1" id="Слой_1" xmlns="http://www.w3.org/2000/svg" xmlns:xlink="http://www.w3.org/1999/xlink" x="0px" y="0px"
	 viewBox="0 0 500 500" style="enable-background:new 0 0 500 500;" xml:space="preserve">
<style type="text/css">
	.st0{fill:#606060;}
	.st1{fill:#515151;}
	.st2{fill:#FFFFFF;}
</style>
<path class="st1" d="M236,425.2c0-6.5,0.2-13,0-19.4c-0.7-16.1-10.7-26.9-24-26.5c-13.9,0.5-24.5,11.9-24.7,27.2
	c-0.2,19.7,1.5,39.6-3.3,59c-6.7,27.1-33.6,39.2-54,23.9c-11.6-8.7-20.8-19.5-26.4-33.2c-5.8-14-8.5-28.7-10.5-43.6
	c-3.2-24.5-2.7-48.8,2.5-73.2c3.5-16.7,2.4-32.6-7.7-47.9C77.2,275,66.8,258,62.5,238.2c-4.7-21.3-5.9-42.4-0.4-63.8
	c10.9-42.3,47.1-67,90.6-62.1c15.9,1.8,31,5.8,44.4,14.1c10.3,6.4,19.2,5.9,29.5,0.1c22.6-12.9,46.8-18.5,72.8-12.7
	c28.6,6.3,47.6,23.5,58.2,50.7c15,38.4,6.1,74.3-11.5,109.3c-4.3,8.5-9,16.7-14.7,24.5c-8.1,11.2-5.6,24.5-3.8,36.7
	c3.3,23.1,4.3,46.1,3.4,69.3c-0.9,24.3-7.8,47-20.6,67.7c-5.3,8.5-12.3,15.4-21.8,19.5c-21,9.2-41.2,0.2-47.7-21.7
	C236.4,455.3,235.8,440.3,236,425.2z M267.4,421c0.3,10.5-0.5,21.2,1.9,31.6c0.8,3.3,0.6,7.4,4.7,8.3c4.1,0.9,5.8-3,7.9-5.4
	c5.1-5.6,8.9-12.3,10.8-19.5c7.4-28.3,10.1-57,4.1-86c-5.7-27.7-3.9-53.5,13.1-78c15.9-23,25.3-48.8,22.6-78
	c-2.5-27.3-22-48.5-48.7-50.2c-13.1-0.8-26.1,1.4-37.3,8.6c-22.8,14.6-45.3,14.8-68.2,0.5c-7.9-5-17-7-26.1-8.7
	c-29.4-5.6-57.2,13.7-60.6,42.2c-3.4,28.3,1.1,55,17.2,79.2c4.5,6.8,8.8,13.8,12.7,21c6.4,11.6,9.1,23.9,7.5,37.4
	c-3.1,27.4-7.7,54.7-5,82.4c1.8,18.5,5.8,36.4,17.5,51.6c1.8,2.4,4,5.4,7.4,4.6c4-0.9,4.7-4.8,4.9-8.1c0.5-8.8,2.2-17.5,1.2-26.5
	c-1.5-13.6-0.8-27.2,3.1-40.5c7.5-25.1,30.1-41.6,56.5-39.8c21.2,1.4,46.8,16.9,51.4,43.8C267.8,401.3,267.2,411.2,267.4,421z"/>
<g>
	<g>
		<path class="st2" d="M390.6,65.2C379,69.8,280,175.8,280,175.8l41.9,40.8L433.7,103L390.6,65.2z"/>
		<path class="st1" d="M223.9,266.2c1-1.2,2-2.4,3.1-3.5c14.3-14.3,28.6-28.6,42.9-42.9c1.3-1.3,2.3-2.5,2.5-4.4
			c0.2-2.1,1.4-3.7,2.9-5.1c3.4-3.3,6.7-6.8,10.1-10c1.6-1.5,1.8-2.5,0.1-4.2c-4.4-4.2-8.7-8.6-13-13c-4.9-4.9-4.9-8.7,0-13.6
			c35.5-35.5,71-71,106.5-106.5c1.3-1.3,2.1-2.1,0.3-3.9c-3.3-3.3-3.3-7.8-0.2-10.9c3.1-3,7.5-3,10.9,0.3c7,6.8,13.8,13.8,20.7,20.7
			c3.1,3.1,2.4,3.1,5.5,0.1c11.4-11.4,22.9-22.8,34.3-34.3c2.9-2.9,2.9-2.9,0.1-5.7c-3.3-3.3-6.7-6.5-9.8-9.9
			c-3.7-4-2.7-9.7,1.9-12.1c2.9-1.5,6.3-0.9,9,1.7c4,3.9,8,7.9,11.9,11.9c7.8,7.8,15.5,15.5,23.3,23.3c2.5,2.5,3.6,5.3,2.3,8.7
			c-1.9,5.2-8.1,6.5-12.3,2.6c-3.6-3.3-6.9-6.8-10.3-10.2c-2.5-2.4-2.5-2.4-4.8-0.1c-11.7,11.7-23.5,23.5-35.2,35.2
			c-2.3,2.3-2.3,2.3,0.1,4.8c6.6,6.6,13.2,13.2,19.8,19.8c0.7,0.7,1.4,1.3,1.9,2.1c2.7,3.3,2.4,7.5-0.5,10.3
			c-2.9,2.7-7.2,3-10.1,0.1c-2-2-3.1-1.6-4.9,0.2c-35.2,35.3-70.5,70.5-105.7,105.8c-5.4,5.4-8.9,5.4-14.3,0
			c-4.2-4.2-8.4-8.2-12.4-12.5c-1.8-1.9-2.9-1.7-4.5,0.1c-3.2,3.4-6.6,6.6-9.9,9.9c-1.2,1.2-2.6,2.5-4.3,2.7
			c-2.7,0.2-4.3,1.8-6.1,3.6c-14,14-28,28-42,42c-1.1,1.1-2.3,2.1-3.4,3.1c-2.1,0-4.8,0.7-6-0.4
			C223.1,271.1,223.9,268.2,223.9,266.2z M379.8,111.8c0.1-3.3,3.6-5.4,6.5-3.9c1,0.6,2,1.4,2.8,2.3c4.4,4.4,8.9,8.7,13.2,13.2
			c1.3,1.4,2.2,1.4,3.6,0c5.6-5.8,11.3-11.4,17-17.1c1.3-1.3,1.3-2.1,0-3.3c-9.9-9.9-19.8-19.8-29.7-29.7c-1.3-1.3-2.1-1.2-3.3,0.1
			c-2.6,2.8-5.4,5.4-8,8.1c-30.9,30.9-61.7,61.7-92.6,92.6c-1.2,1.2-2.6,2.2-0.6,4.1c9.9,9.8,19.7,19.6,29.5,29.5
			c1.3,1.3,2.1,1.3,3.4,0c8.2-8.3,16.5-16.5,24.8-24.7c1.4-1.4,1.3-2.3-0.1-3.6c-4.8-4.7-9.5-9.4-14.1-14.1c-2.3-2.3-2.4-5-0.6-6.9
			c2-2.1,4.5-1.9,7.1,0.4c0.5,0.5,1,1,1.5,1.5c4.2,4.2,8.5,8.4,12.6,12.7c1.3,1.3,2.3,1.5,3.6,0.1c1.8-2,3.8-3.8,5.7-5.7
			c2.5-2.5,2.5-2.5,0.1-5c-4.5-4.5-9.1-9-13.5-13.6c-2.6-2.7-2.2-6.4,0.9-7.8c2.3-1,4.2-0.2,5.8,1.5c4.6,4.6,9.3,9.1,13.7,13.8
			c1.7,1.8,2.8,1.6,4.3-0.1c1.8-2.1,3.8-4,5.9-5.9c1.6-1.4,1.7-2.4,0.1-3.9c-4.4-4.2-8.7-8.6-13-13c-0.8-0.9-1.7-1.8-2.3-2.8
			c-1.1-1.9-0.7-3.7,0.8-5.2c1.4-1.5,3.1-1.7,5-1c1.1,0.4,1.9,1.2,2.6,2c4.5,4.5,9.1,9,13.5,13.6c1.4,1.4,2.2,1.4,3.5,0
			c2.1-2.3,4.3-4.5,6.6-6.6c1.4-1.3,1.2-2.1-0.1-3.3c-4.7-4.6-9.3-9.3-14-13.9C380.8,114.9,379.8,113.6,379.8,111.8z"/>
	</g>
</g>
</svg>
