<?xml version="1.0" encoding="utf-8"?>
<!-- Generator: Adobe Illustrator 22.0.1, SVG Export Plug-In . SVG Version: 6.00 Build 0)  -->
<svg version="1.1" id="Слой_1" xmlns="http://www.w3.org/2000/svg" xmlns:xlink="http://www.w3.org/1999/xlink" x="0px" y="0px"
	 viewBox="0 0 144 158.9" style="enable-background:new 0 0 144 158.9;" xml:space="preserve">
<style type="text/css">
	<!-- .st0{fill:#E8E8E8;} -->
</style>
<path class="st0" d="M144,43.2h-9.1c0.7-6.9,0-14-2.9-21.3C127.6,10.7,119.8,3.6,108,1C97.3-1.5,87.3,0.9,77.9,6.2
	c-4.3,2.4-7.9,2.6-12.2,0C60.2,2.7,54,1.1,47.4,0.3C29.4-1.7,14.5,8.5,10,26c-1.5,5.8-1.8,11.5-1.3,17.2H0v5h9.3
	c0.2,1.4,0.5,2.7,0.8,4.1c1.8,8.2,6.1,15.2,10.5,22c4.2,6.3,4.6,12.9,3.2,19.8c-2.1,10.1-2.4,20.1-1,30.2c0.8,6.2,1.9,12.2,4.3,18
	c2.3,5.7,6.1,10.1,10.9,13.7c8.4,6.3,19.5,1.3,22.3-9.9c2-8,1.3-16.2,1.4-24.4c0.1-6.3,4.5-11,10.2-11.2c5.5-0.2,9.6,4.3,9.9,10.9
	c0.1,2.6,0,5.3,0,8c-0.1,6.2,0.2,12.4,2,18.4c2.7,9,11,12.8,19.7,9c3.9-1.7,6.8-4.5,9-8.1c5.3-8.6,8.1-17.9,8.5-28
	c0.4-9.6,0-19.1-1.4-28.6c-0.7-5-1.8-10.5,1.6-15.2c2.4-3.2,4.3-6.6,6.1-10.1c3.1-6.2,5.6-12.4,6.9-18.8h9.8V43.2z M22.2,30.9
	c1.4-11.8,12.9-19.7,25-17.4C51,14.2,54.7,15,58,17.1c9.5,5.9,18.8,5.8,28.2-0.2c4.6-3,10-3.9,15.4-3.6c11,0.7,19.1,9.5,20.1,20.7
	c0.3,3.1,0.2,6.2-0.1,9.1H91.3v-9.9H52.8v9.9H22C21.6,39.2,21.7,35.1,22.2,30.9z M57.8,48.2h28.5v4.9H57.8V48.2z M57.8,43.2v-4.9
	h28.5v4.9H57.8z M112.3,66.3c-7,10.1-7.8,20.8-5.4,32.2c2.5,12,1.4,23.8-1.7,35.5c-0.8,3-2.4,5.7-4.5,8.1c-0.9,1-1.6,2.6-3.3,2.2
	c-1.7-0.4-1.6-2.1-1.9-3.4c-1-4.3-0.7-8.7-0.8-13.1c-0.1-4,0.2-8.1-0.6-12.2c-1.8-11-12.4-17.4-21.1-18
	c-10.9-0.7-20.2,6.1-23.3,16.4c-1.6,5.5-1.9,11.1-1.3,16.7c0.4,3.7-0.3,7.3-0.5,10.9c-0.1,1.4-0.4,3-2,3.3c-1.4,0.3-2.3-0.9-3.1-1.9
	c-4.8-6.3-6.5-13.7-7.2-21.3c-1.1-11.4,0.8-22.7,2.1-34c0.7-5.6-0.5-10.7-3.1-15.5c-1.6-3-3.4-5.9-5.2-8.7
	c-3.3-4.9-5.4-10.1-6.5-15.4h30V58h38.5v-9.9h29.4C119.1,54.7,116.2,60.7,112.3,66.3z"/>
</svg>
