<?xml version="1.0" encoding="utf-8"?>
<!-- Generator: Adobe Illustrator 22.0.1, SVG Export Plug-In . SVG Version: 6.00 Build 0)  -->
<svg version="1.1" id="Слой_1" xmlns="http://www.w3.org/2000/svg" xmlns:xlink="http://www.w3.org/1999/xlink" x="0px" y="0px"
	 viewBox="0 0 500 500" style="enable-background:new 0 0 500 500;" xml:space="preserve">
<style type="text/css">
	.st0{fill:#606060;}
	.st1{fill:#515151;}
	.st2{fill:#FFFFFF;}
</style>
<path class="st1" d="M258,425.2c0-6.5,0.2-13,0-19.4c-0.7-16.1-10.7-26.9-24-26.5c-13.9,0.5-24.5,11.9-24.7,27.2
	c-0.2,19.7,1.5,39.6-3.3,59c-6.7,27.1-33.6,39.2-54,23.9c-11.6-8.7-20.8-19.5-26.4-33.2c-5.8-14-8.5-28.7-10.5-43.6
	c-3.2-24.5-2.7-48.8,2.5-73.2c3.5-16.7,2.4-32.6-7.7-47.9C99.2,275,88.8,258,84.5,238.2c-4.7-21.3-5.9-42.4-0.4-63.8
	c10.9-42.3,47.1-67,90.6-62.1c15.9,1.8,31,5.8,44.4,14.1c10.3,6.4,19.2,5.9,29.5,0.1c22.6-12.9,46.8-18.5,72.8-12.7
	c28.6,6.3,47.6,23.5,58.2,50.7c15,38.4,6.1,74.3-11.5,109.3c-4.3,8.5-9,16.7-14.7,24.5c-8.1,11.2-5.6,24.5-3.8,36.7
	c3.3,23.1,4.3,46.1,3.4,69.3c-0.9,24.3-7.8,47-20.6,67.7c-5.3,8.5-12.3,15.4-21.8,19.5c-21,9.2-41.2,0.2-47.7-21.7
	C258.4,455.3,257.8,440.3,258,425.2z M289.4,421c0.3,10.5-0.5,21.2,1.9,31.6c0.8,3.3,0.6,7.4,4.7,8.3c4.1,0.9,5.8-3,7.9-5.4
	c5.1-5.6,8.9-12.3,10.8-19.5c7.4-28.3,10.1-57,4.1-86c-5.7-27.7-3.9-53.5,13.1-78c15.9-23,25.3-48.8,22.6-78
	c-2.5-27.3-22-48.5-48.7-50.2c-13.1-0.8-26.1,1.4-37.3,8.6c-22.8,14.6-45.3,14.8-68.2,0.5c-7.9-5-17-7-26.1-8.7
	c-29.4-5.6-57.2,13.7-60.6,42.2c-3.4,28.3,1.1,55,17.2,79.2c4.5,6.8,8.8,13.8,12.7,21c6.4,11.6,9.1,23.9,7.5,37.4
	c-3.1,27.4-7.7,54.7-5,82.4c1.8,18.5,5.8,36.4,17.5,51.6c1.8,2.4,4,5.4,7.4,4.6c4-0.9,4.7-4.8,4.9-8.1c0.5-8.8,2.2-17.5,1.2-26.5
	c-1.5-13.6-0.8-27.2,3.1-40.5c7.5-25.1,30.1-41.6,56.5-39.8c21.2,1.4,46.8,16.9,51.4,43.8C289.8,401.3,289.2,411.2,289.4,421z"/>
<g>
	<path class="st2" d="M441.8,63.7C441.8,63.7,441.8,63.7,441.8,63.7c0-6.1,0-12.3,0-18.4c0-1-0.3-1.5-1.4-1.4
		c-1.6,0.1-3.1,0.2-4.7,0.2c-7.1,0-14.1-0.5-21.2-1.5c-8.6-1.2-16.8-3.6-24.4-8c-8-4.6-15.2-10.1-22-16.4c-0.6-0.6-1-0.6-1.6,0
		c-2.4,2.4-4.9,4.6-7.5,6.7c-6.6,5.4-13.6,10.2-21.6,13.5c-8.7,3.6-17.9,4.6-27.1,5.3c-5.1,0.4-10.1,0.6-15.2,0.3
		c-1.5-0.1-1.5,0-1.5,1.5c0,7.4,0,14.9,0,22.3c0,7.4,0,14.9,0.4,22.3c0.4,8.1,1.3,16.1,2.6,24.1c2.4,13.7,6.2,26.9,12.4,39.4
		c7.3,14.9,17.3,27.6,30.8,37.4c7.8,5.7,16.3,10,25.7,12.6c1.2,0.3,2.3,0.4,3.5,0c5.9-1.6,11.4-3.9,16.7-6.8
		c15.2-8.3,26.9-20.2,35.8-35c7.2-11.8,11.9-24.6,15.1-38c3.6-15.1,4.9-30.4,5-45.9C441.9,73.2,441.8,68.5,441.8,63.7z"/>
	<g>
		<g>
			<path class="st1" d="M280.5,87.2c0-15.3,0-30.5,0-45.8c0.1-0.2,0.1-0.5,0.2-0.7c1.6-5.8,5.4-9.3,11.4-10.3c2.4-0.4,4.8,0,7.2,0
				c7.1,0,14.1-0.5,21.1-1.5c9-1.2,17.1-4.4,24.4-9.7c4.8-3.5,9.2-7.3,13.4-11.4c2-1.9,4.3-3.4,7-3.9c1.6,0,3.2,0,4.8,0
				c3,0.6,5.4,2.1,7.7,4c3.8,3.2,7.6,6.4,11.7,9.3c5.7,4.1,11.4,8,18.3,9.9c7.1,2,14.3,2.7,21.6,3c4.4,0.2,8.7,0.1,13.1,0
				c2.3,0,4.4,0.6,6.5,1.7c3.8,2.1,5.9,5.4,6.9,9.5c0,15.3,0,30.5,0,45.8c-0.2,2.8-0.4,5.6-0.6,8.5c-0.5,8.5-1.7,17-3.3,25.3
				c-3.1,15.9-8.2,31.1-16.2,45.2c-8.2,14.5-18.9,26.7-32.5,36.3c-10.1,7.1-21,12.3-33.1,15c-1.5,0-3.1,0-4.6,0
				c-2.5-0.6-4.9-1.2-7.3-2c-14.9-5-27.9-13.3-39-24.4c-10.4-10.4-18.4-22.5-24.3-36c-8.8-19.9-12.8-40.8-14-62.4
				C280.8,90.9,280.7,89.1,280.5,87.2z M442.2,63.7C442.2,63.7,442.2,63.7,442.2,63.7c0-6.1,0-12.3,0-18.4c0-1-0.3-1.5-1.4-1.4
				c-1.6,0.1-3.1,0.2-4.7,0.2c-7.1,0-14.1-0.5-21.2-1.5c-8.6-1.2-16.8-3.6-24.4-8c-8-4.6-15.2-10.1-22-16.4c-0.6-0.6-1-0.6-1.6,0
				c-2.4,2.4-4.9,4.6-7.5,6.7c-6.6,5.4-13.6,10.2-21.6,13.5c-8.7,3.6-17.9,4.6-27.1,5.3c-5.1,0.4-10.1,0.6-15.2,0.3
				c-1.5-0.1-1.5,0-1.5,1.5c0,7.4,0,14.9,0,22.3c0,7.4,0,14.9,0.4,22.3c0.4,8.1,1.3,16.1,2.6,24.1c2.4,13.7,6.2,26.9,12.4,39.4
				c7.3,14.9,17.3,27.6,30.8,37.4c7.8,5.7,16.3,10,25.7,12.6c1.2,0.3,2.3,0.4,3.5,0c5.9-1.6,11.4-3.9,16.7-6.8
				c15.2-8.3,26.9-20.2,35.8-35c7.2-11.8,11.9-24.6,15.1-38c3.6-15.1,4.9-30.4,5-45.9C442.2,73.2,442.2,68.5,442.2,63.7z"/>
			<path class="st1" d="M355.1,147.9c-2.3,0-4.2-0.8-5.8-2.4c-10.6-10.6-21.3-21.2-31.9-31.9c-3.3-3.3-3.2-8.4,0-11.7
				c3.2-3.2,8.3-3.2,11.7,0.1c8.4,8.4,16.8,16.7,25.1,25.1c0.7,0.7,1.1,0.8,1.9,0c16.9-16.9,33.8-33.9,50.8-50.8
				c2.4-2.5,5.3-3.4,8.6-2.4c5.4,1.6,7.5,8.1,4.2,12.6c-0.3,0.5-0.7,0.9-1.1,1.3c-19.1,19.1-38.2,38.2-57.2,57.3
				C359.6,146.9,357.6,147.9,355.1,147.9z"/>
		</g>
	</g>
</g>
</svg>
